<svg xmlns="http://www.w3.org/2000/svg" fill="none" viewBox="154.56 1150.88 524.46 219.81">
<rect x="154.982" y="1180.11" width="214.347" height="169.796" rx="16.3912" transform="rotate(-7.71816 154.982 1180.11)" fill="white" stroke="#E9EDF7" stroke-width="0.840576"/>
<circle opacity="0.1" cx="196.127" cy="1211.43" r="16.8115" transform="rotate(-7.71816 196.127 1211.43)" fill="#2764F5"/>
<path d="M232.373 1201.08L232.541 1202.32L230.075 1202.65L231.162 1210.68L229.643 1210.88L228.556 1202.86L226.077 1203.19L225.909 1201.96L232.373 1201.08ZM238.368 1209.82C237.675 1209.92 237.028 1209.84 236.426 1209.61C235.823 1209.37 235.323 1208.98 234.926 1208.46C234.528 1207.92 234.277 1207.28 234.175 1206.52C234.074 1205.78 234.148 1205.09 234.399 1204.47C234.649 1203.85 235.038 1203.34 235.564 1202.95C236.091 1202.57 236.705 1202.32 237.407 1202.23C238.109 1202.13 238.765 1202.2 239.376 1202.44C239.987 1202.67 240.496 1203.05 240.903 1203.59C241.31 1204.12 241.564 1204.76 241.665 1205.51C241.766 1206.25 241.687 1206.94 241.428 1207.56C241.168 1208.18 240.767 1208.7 240.224 1209.09C239.689 1209.48 239.07 1209.73 238.368 1209.82ZM238.189 1208.5C238.58 1208.45 238.932 1208.31 239.244 1208.07C239.565 1207.84 239.807 1207.52 239.97 1207.12C240.133 1206.72 240.178 1206.25 240.106 1205.72C240.033 1205.18 239.87 1204.75 239.617 1204.41C239.362 1204.07 239.053 1203.82 238.69 1203.68C238.327 1203.54 237.95 1203.5 237.559 1203.55C237.168 1203.6 236.817 1203.75 236.504 1203.98C236.201 1204.21 235.977 1204.53 235.832 1204.93C235.686 1205.32 235.649 1205.78 235.721 1206.31C235.828 1207.1 236.111 1207.69 236.57 1208.07C237.036 1208.44 237.576 1208.58 238.189 1208.5ZM244.611 1202.64L245.162 1206.7C245.199 1206.98 245.288 1207.17 245.429 1207.28C245.578 1207.37 245.808 1207.4 246.119 1207.36L247.052 1207.23L247.224 1208.5L246.024 1208.66C245.34 1208.75 244.794 1208.67 244.387 1208.39C243.979 1208.12 243.726 1207.63 243.629 1206.91L243.078 1202.84L242.212 1202.96L242.044 1201.72L242.91 1201.61L242.663 1199.78L244.195 1199.57L244.443 1201.4L246.229 1201.16L246.397 1202.39L244.611 1202.64ZM247.616 1204.67C247.516 1203.94 247.578 1203.26 247.803 1202.65C248.037 1202.04 248.395 1201.55 248.877 1201.16C249.367 1200.77 249.932 1200.53 250.571 1200.44C251.149 1200.37 251.666 1200.41 252.124 1200.59C252.59 1200.75 252.974 1200.98 253.278 1201.29L253.133 1200.22L254.666 1200.01L255.661 1207.36L254.128 1207.56L253.98 1206.47C253.77 1206.85 253.458 1207.19 253.045 1207.48C252.632 1207.77 252.141 1207.95 251.572 1208.03C250.942 1208.12 250.342 1208.04 249.775 1207.79C249.206 1207.53 248.727 1207.13 248.338 1206.6C247.956 1206.05 247.716 1205.41 247.616 1204.67ZM253.63 1203.88C253.561 1203.38 253.395 1202.95 253.131 1202.61C252.876 1202.26 252.567 1202.02 252.203 1201.87C251.838 1201.72 251.461 1201.67 251.07 1201.72C250.679 1201.77 250.328 1201.92 250.017 1202.16C249.705 1202.39 249.467 1202.71 249.304 1203.11C249.149 1203.51 249.106 1203.95 249.175 1204.46C249.243 1204.97 249.406 1205.4 249.662 1205.75C249.927 1206.11 250.242 1206.36 250.608 1206.52C250.981 1206.67 251.358 1206.72 251.74 1206.67C252.131 1206.61 252.482 1206.47 252.793 1206.22C253.104 1205.98 253.337 1205.66 253.491 1205.26C253.652 1204.85 253.698 1204.39 253.63 1203.88ZM257.839 1197.02L259.176 1206.88L257.657 1207.08L256.32 1197.22L257.839 1197.02ZM263.624 1202.5C263.524 1201.77 263.587 1201.09 263.812 1200.48C264.046 1199.87 264.404 1199.38 264.886 1198.99C265.375 1198.6 265.945 1198.36 266.593 1198.27C267.073 1198.21 267.558 1198.25 268.049 1198.4C268.548 1198.54 268.958 1198.77 269.281 1199.08L268.8 1195.53L270.333 1195.32L271.669 1205.19L270.137 1205.39L269.987 1204.29C269.786 1204.68 269.48 1205.02 269.067 1205.31C268.663 1205.6 268.176 1205.78 267.608 1205.86C266.968 1205.95 266.36 1205.86 265.783 1205.62C265.215 1205.36 264.736 1204.96 264.346 1204.43C263.965 1203.88 263.724 1203.24 263.624 1202.5ZM269.638 1201.72C269.57 1201.21 269.403 1200.78 269.14 1200.44C268.885 1200.09 268.575 1199.85 268.211 1199.7C267.847 1199.55 267.469 1199.5 267.078 1199.55C266.688 1199.6 266.336 1199.75 266.025 1199.99C265.713 1200.22 265.476 1200.54 265.313 1200.94C265.158 1201.34 265.115 1201.79 265.183 1202.29C265.252 1202.8 265.414 1203.23 265.67 1203.58C265.936 1203.94 266.251 1204.19 266.616 1204.35C266.989 1204.5 267.367 1204.55 267.749 1204.5C268.14 1204.44 268.491 1204.3 268.802 1204.05C269.113 1203.81 269.345 1203.49 269.499 1203.09C269.661 1202.68 269.707 1202.22 269.638 1201.72ZM279.873 1200.15C279.911 1200.43 279.927 1200.68 279.921 1200.91L274.31 1201.67C274.434 1202.25 274.716 1202.69 275.155 1202.99C275.594 1203.29 276.098 1203.4 276.666 1203.33C277.484 1203.22 278.015 1202.8 278.26 1202.07L279.899 1201.84C279.769 1202.55 279.44 1203.16 278.912 1203.67C278.392 1204.18 277.702 1204.49 276.84 1204.61C276.138 1204.7 275.486 1204.63 274.884 1204.4C274.29 1204.15 273.794 1203.77 273.397 1203.24C273.008 1202.71 272.762 1202.06 272.66 1201.31C272.558 1200.55 272.619 1199.87 272.844 1199.26C273.077 1198.64 273.447 1198.14 273.956 1197.75C274.474 1197.36 275.092 1197.12 275.812 1197.02C276.505 1196.93 277.143 1197 277.726 1197.23C278.309 1197.45 278.789 1197.82 279.166 1198.33C279.541 1198.83 279.777 1199.44 279.873 1200.15ZM278.222 1199.89C278.138 1199.33 277.877 1198.91 277.44 1198.62C277.004 1198.34 276.496 1198.23 275.919 1198.31C275.395 1198.38 274.969 1198.61 274.641 1199C274.313 1199.38 274.152 1199.86 274.158 1200.44L278.222 1199.89ZM288.007 1201.59L289.275 1195.32L290.888 1195.1L289.084 1202.83L287.272 1203.07L283.491 1196.11L285.117 1195.89L288.007 1201.59ZM299.24 1197.53C299.277 1197.8 299.293 1198.05 299.288 1198.28L293.677 1199.04C293.801 1199.62 294.082 1200.06 294.521 1200.37C294.96 1200.67 295.464 1200.78 296.033 1200.7C296.85 1200.59 297.381 1200.17 297.626 1199.44L299.266 1199.22C299.135 1199.93 298.806 1200.54 298.279 1201.05C297.759 1201.55 297.068 1201.87 296.206 1201.98C295.504 1202.08 294.852 1202.01 294.251 1201.77C293.656 1201.53 293.161 1201.14 292.764 1200.62C292.375 1200.08 292.129 1199.44 292.026 1198.68C291.924 1197.93 291.985 1197.24 292.21 1196.63C292.443 1196.01 292.814 1195.51 293.323 1195.13C293.84 1194.74 294.459 1194.5 295.178 1194.4C295.871 1194.31 296.509 1194.37 297.092 1194.6C297.675 1194.83 298.155 1195.2 298.532 1195.71C298.907 1196.21 299.143 1196.82 299.24 1197.53ZM297.589 1197.26C297.504 1196.7 297.243 1196.28 296.807 1196C296.37 1195.71 295.863 1195.61 295.285 1195.69C294.761 1195.76 294.335 1195.99 294.008 1196.38C293.679 1196.76 293.518 1197.23 293.524 1197.81L297.589 1197.26ZM303.95 1193.21C304.528 1193.13 305.059 1193.18 305.545 1193.36C306.04 1193.54 306.448 1193.84 306.769 1194.28C307.091 1194.72 307.297 1195.27 307.387 1195.93L307.974 1200.27L306.468 1200.47L305.912 1196.36C305.822 1195.71 305.59 1195.23 305.214 1194.93C304.837 1194.61 304.365 1194.5 303.796 1194.57C303.227 1194.65 302.798 1194.89 302.509 1195.29C302.227 1195.68 302.131 1196.21 302.22 1196.87L302.776 1200.97L301.257 1201.18L300.262 1193.83L301.781 1193.63L301.895 1194.47C302.103 1194.13 302.386 1193.85 302.745 1193.63C303.113 1193.41 303.515 1193.27 303.95 1193.21ZM308.903 1196.37C308.803 1195.63 308.866 1194.96 309.091 1194.35C309.325 1193.74 309.683 1193.24 310.165 1192.86C310.655 1192.46 311.224 1192.22 311.872 1192.14C312.352 1192.07 312.837 1192.11 313.328 1192.27C313.827 1192.41 314.237 1192.63 314.56 1192.94L314.079 1189.39L315.612 1189.19L316.949 1199.05L315.416 1199.26L315.266 1198.15C315.066 1198.54 314.759 1198.88 314.346 1199.17C313.942 1199.46 313.455 1199.64 312.887 1199.72C312.247 1199.81 311.639 1199.73 311.063 1199.48C310.494 1199.22 310.015 1198.83 309.626 1198.29C309.244 1197.75 309.003 1197.1 308.903 1196.37ZM314.918 1195.58C314.849 1195.07 314.683 1194.65 314.419 1194.3C314.164 1193.96 313.854 1193.71 313.49 1193.56C313.126 1193.41 312.749 1193.36 312.358 1193.41C311.967 1193.47 311.616 1193.61 311.305 1193.86C310.992 1194.09 310.755 1194.41 310.592 1194.81C310.437 1195.2 310.394 1195.65 310.463 1196.16C310.531 1196.66 310.694 1197.09 310.95 1197.45C311.215 1197.8 311.53 1198.06 311.895 1198.21C312.268 1198.36 312.646 1198.41 313.028 1198.36C313.419 1198.31 313.77 1198.16 314.081 1197.92C314.392 1197.68 314.625 1197.36 314.778 1196.95C314.94 1196.54 314.986 1196.09 314.918 1195.58ZM317.936 1195.14C317.836 1194.4 317.898 1193.73 318.123 1193.12C318.357 1192.51 318.715 1192.01 319.197 1191.63C319.687 1191.24 320.252 1191 320.891 1190.91C321.469 1190.84 321.987 1190.88 322.444 1191.06C322.91 1191.22 323.294 1191.45 323.598 1191.76L323.453 1190.69L324.986 1190.48L325.981 1197.83L324.448 1198.03L324.3 1196.94C324.09 1197.32 323.778 1197.66 323.365 1197.95C322.952 1198.24 322.461 1198.42 321.893 1198.5C321.262 1198.59 320.663 1198.51 320.095 1198.26C319.526 1198 319.047 1197.6 318.658 1197.07C318.276 1196.52 318.036 1195.88 317.936 1195.14ZM323.95 1194.35C323.881 1193.85 323.715 1193.42 323.451 1193.08C323.196 1192.73 322.887 1192.49 322.523 1192.34C322.159 1192.19 321.781 1192.14 321.39 1192.19C320.999 1192.24 320.648 1192.39 320.337 1192.63C320.025 1192.86 319.787 1193.18 319.625 1193.58C319.47 1193.98 319.426 1194.42 319.495 1194.93C319.564 1195.44 319.726 1195.87 319.982 1196.22C320.247 1196.58 320.562 1196.83 320.928 1196.99C321.301 1197.14 321.678 1197.19 322.06 1197.13C322.451 1197.08 322.802 1196.93 323.113 1196.69C323.424 1196.45 323.657 1196.13 323.811 1195.73C323.972 1195.32 324.019 1194.86 323.95 1194.35ZM330.658 1197.31C330.081 1197.39 329.547 1197.36 329.058 1197.22C328.576 1197.07 328.177 1196.83 327.862 1196.51C327.547 1196.18 327.35 1195.8 327.272 1195.36L328.844 1195.14C328.913 1195.45 329.095 1195.69 329.391 1195.87C329.694 1196.04 330.05 1196.09 330.458 1196.04C330.885 1195.98 331.203 1195.86 331.412 1195.66C331.629 1195.46 331.72 1195.23 331.685 1194.98C331.648 1194.7 331.487 1194.51 331.202 1194.42C330.927 1194.32 330.494 1194.23 329.903 1194.14C329.332 1194.07 328.863 1193.98 328.498 1193.89C328.132 1193.79 327.8 1193.62 327.503 1193.36C327.214 1193.1 327.038 1192.73 326.973 1192.25C326.92 1191.86 326.987 1191.49 327.175 1191.14C327.361 1190.78 327.655 1190.47 328.056 1190.23C328.466 1189.98 328.951 1189.82 329.511 1189.75C330.346 1189.63 331.046 1189.76 331.61 1190.11C332.182 1190.46 332.535 1191 332.669 1191.72L331.15 1191.93C331.079 1191.6 330.91 1191.36 330.643 1191.19C330.377 1191.03 330.04 1190.98 329.631 1191.03C329.231 1191.09 328.935 1191.2 328.742 1191.38C328.549 1191.56 328.47 1191.78 328.503 1192.03C328.53 1192.22 328.623 1192.38 328.783 1192.49C328.944 1192.61 329.131 1192.69 329.347 1192.74C329.561 1192.78 329.875 1192.84 330.291 1192.9C330.843 1192.97 331.298 1193.06 331.656 1193.16C332.022 1193.26 332.349 1193.43 332.636 1193.68C332.923 1193.93 333.103 1194.29 333.176 1194.76C333.233 1195.18 333.168 1195.57 332.981 1195.93C332.795 1196.29 332.501 1196.59 332.1 1196.83C331.708 1197.08 331.227 1197.24 330.658 1197.31Z" fill="#212227"/>
<path d="M201.695 1271.23C201.812 1272.1 201.698 1272.94 201.352 1273.77C201.02 1274.58 200.455 1275.29 199.657 1275.91C198.872 1276.51 197.903 1276.93 196.748 1277.17L197.022 1279.19L195.423 1279.41L195.145 1277.36C193.459 1277.43 192.05 1277.12 190.919 1276.4C189.785 1275.68 189.103 1274.58 188.871 1273.12L192.619 1272.61C192.881 1273.8 193.596 1274.44 194.763 1274.53L194.116 1269.76C192.876 1269.62 191.869 1269.46 191.095 1269.26C190.322 1269.05 189.623 1268.66 189 1268.06C188.376 1267.47 187.987 1266.6 187.831 1265.45C187.634 1264 187.991 1262.75 188.899 1261.69C189.825 1260.63 191.103 1259.92 192.734 1259.57L192.46 1257.54L194.059 1257.33L194.333 1259.35C195.951 1259.27 197.291 1259.58 198.353 1260.28C199.432 1260.98 200.129 1262.06 200.445 1263.51L196.671 1264.02C196.556 1263.54 196.325 1263.15 195.977 1262.84C195.644 1262.51 195.226 1262.31 194.723 1262.22L195.363 1266.95C196.655 1267.09 197.68 1267.27 198.437 1267.47C199.208 1267.66 199.906 1268.04 200.529 1268.64C201.15 1269.22 201.539 1270.08 201.695 1271.23ZM191.456 1264.78C191.53 1265.33 191.758 1265.76 192.138 1266.06C192.517 1266.35 193.037 1266.56 193.699 1266.69L193.113 1262.37C192.525 1262.53 192.081 1262.82 191.78 1263.23C191.48 1263.65 191.372 1264.16 191.456 1264.78ZM196.369 1274.37C196.986 1274.17 197.442 1273.84 197.738 1273.39C198.05 1272.94 198.168 1272.44 198.091 1271.87C198.017 1271.32 197.782 1270.9 197.387 1270.62C196.992 1270.33 196.455 1270.12 195.776 1270L196.369 1274.37ZM216.067 1258.92L207.97 1260.02L208.549 1264.29C208.84 1263.81 209.293 1263.4 209.906 1263.04C210.518 1262.67 211.19 1262.43 211.923 1262.34C213.256 1262.15 214.386 1262.3 215.315 1262.77C216.244 1263.23 216.962 1263.9 217.469 1264.76C217.974 1265.61 218.297 1266.55 218.437 1267.59C218.696 1269.5 218.355 1271.12 217.414 1272.43C216.489 1273.74 215.019 1274.54 213.003 1274.81C211.104 1275.07 209.523 1274.8 208.262 1274C207 1273.21 206.191 1272.05 205.833 1270.54L209.232 1270.08C209.472 1270.73 209.877 1271.21 210.448 1271.54C211.035 1271.87 211.737 1271.98 212.553 1271.87C213.536 1271.74 214.236 1271.33 214.652 1270.64C215.068 1269.96 215.208 1269.11 215.07 1268.09C214.93 1267.06 214.565 1266.31 213.977 1265.85C213.403 1265.37 212.624 1265.19 211.641 1265.33C210.941 1265.42 210.382 1265.67 209.963 1266.09C209.544 1266.5 209.274 1267.01 209.153 1267.62L205.805 1268.08L204.355 1257.38L215.65 1255.85L216.067 1258.92ZM219.506 1258.66L219.069 1255.44L225.091 1254.62L227.56 1272.84L223.962 1273.33L221.93 1258.33L219.506 1258.66ZM229.248 1258.94C229.105 1257.27 229.514 1255.91 230.475 1254.86C231.451 1253.79 232.83 1253.14 234.612 1252.9C235.828 1252.73 236.899 1252.81 237.824 1253.12C238.747 1253.42 239.474 1253.91 240.007 1254.58C240.554 1255.24 240.889 1256.03 241.013 1256.94C241.155 1257.99 241.001 1258.92 240.551 1259.73C240.115 1260.52 239.539 1261.09 238.823 1261.44L238.837 1261.54C239.844 1261.71 240.666 1262.14 241.303 1262.83C241.956 1263.52 242.364 1264.47 242.527 1265.67C242.662 1266.67 242.55 1267.59 242.189 1268.44C241.846 1269.28 241.255 1269.99 240.416 1270.56C239.592 1271.11 238.555 1271.48 237.305 1271.64C235.423 1271.9 233.826 1271.63 232.515 1270.84C231.203 1270.05 230.389 1268.74 230.071 1266.9L233.47 1266.44C233.614 1267.25 233.978 1267.87 234.562 1268.3C235.161 1268.71 235.918 1268.86 236.834 1268.73C237.684 1268.62 238.302 1268.29 238.689 1267.77C239.09 1267.22 239.239 1266.57 239.138 1265.82C239.002 1264.82 238.589 1264.15 237.897 1263.8C237.205 1263.46 236.193 1263.37 234.86 1263.55L234.135 1263.65L233.746 1260.78L234.471 1260.68C236.836 1260.36 237.912 1259.41 237.697 1257.82C237.6 1257.11 237.308 1256.58 236.821 1256.24C236.35 1255.89 235.715 1255.78 234.915 1255.89C234.132 1255.99 233.554 1256.29 233.179 1256.78C232.819 1257.26 232.65 1257.82 232.671 1258.48L229.248 1258.94ZM249.701 1266.1L247.729 1273.51L245.48 1273.82L246.152 1266.58L249.701 1266.1ZM251.054 1260.14C250.663 1257.25 250.874 1254.93 251.685 1253.15C252.513 1251.38 254.135 1250.33 256.551 1250C258.967 1249.67 260.801 1250.26 262.056 1251.75C263.326 1253.24 264.157 1255.43 264.548 1258.31C264.941 1261.21 264.724 1263.55 263.898 1265.34C263.089 1267.13 261.476 1268.19 259.061 1268.52C256.645 1268.85 254.801 1268.26 253.528 1266.75C252.271 1265.24 251.447 1263.04 251.054 1260.14ZM261.099 1258.78C260.932 1257.54 260.709 1256.52 260.429 1255.71C260.164 1254.88 259.754 1254.23 259.199 1253.77C258.66 1253.3 257.924 1253.12 256.991 1253.25C256.058 1253.38 255.386 1253.74 254.976 1254.34C254.581 1254.93 254.359 1255.67 254.307 1256.54C254.27 1257.39 254.335 1258.44 254.502 1259.67C254.674 1260.94 254.893 1261.99 255.161 1262.84C255.426 1263.67 255.836 1264.32 256.391 1264.78C256.944 1265.23 257.687 1265.4 258.62 1265.27C259.553 1265.14 260.226 1264.79 260.639 1264.21C261.05 1263.61 261.273 1262.87 261.308 1262C261.34 1261.12 261.271 1260.04 261.099 1258.78ZM276.068 1252.34C275.807 1251.67 275.444 1251.18 274.98 1250.89C274.533 1250.59 273.926 1250.5 273.16 1250.6C272.011 1250.76 271.224 1251.34 270.801 1252.35C270.392 1253.33 270.32 1254.87 270.586 1256.96C270.895 1256.23 271.409 1255.64 272.125 1255.17C272.84 1254.68 273.647 1254.38 274.546 1254.26C275.629 1254.11 276.619 1254.21 277.515 1254.57C278.411 1254.92 279.153 1255.51 279.742 1256.35C280.328 1257.17 280.705 1258.2 280.875 1259.45C281.035 1260.64 280.937 1261.73 280.58 1262.73C280.238 1263.71 279.644 1264.52 278.797 1265.16C277.951 1265.8 276.895 1266.2 275.629 1266.37C273.896 1266.61 272.478 1266.41 271.375 1265.78C270.288 1265.15 269.452 1264.17 268.867 1262.86C268.297 1261.53 267.875 1259.86 267.602 1257.84C267.188 1254.79 267.402 1252.42 268.241 1250.73C269.078 1249.02 270.63 1248.02 272.896 1247.71C274.645 1247.47 276.067 1247.76 277.162 1248.58C278.257 1249.4 278.975 1250.51 279.317 1251.9L276.068 1252.34ZM274.136 1257.24C273.253 1257.36 272.547 1257.72 272.017 1258.31C271.487 1258.91 271.289 1259.7 271.422 1260.68C271.555 1261.67 271.935 1262.4 272.562 1262.9C273.205 1263.39 274.035 1263.56 275.051 1263.42C275.95 1263.3 276.621 1262.93 277.063 1262.31C277.522 1261.69 277.688 1260.91 277.561 1259.98C277.43 1259.01 277.068 1258.28 276.475 1257.79C275.899 1257.29 275.119 1257.1 274.136 1257.24ZM286.201 1255.07C284.417 1254.43 283.403 1253.2 283.156 1251.38C283.035 1250.48 283.149 1249.64 283.499 1248.84C283.864 1248.03 284.475 1247.35 285.333 1246.79C286.205 1246.21 287.307 1245.83 288.64 1245.65C289.973 1245.47 291.128 1245.54 292.105 1245.87C293.097 1246.18 293.868 1246.67 294.419 1247.36C294.985 1248.03 295.329 1248.82 295.451 1249.72C295.575 1250.63 295.46 1251.47 295.105 1252.23C294.748 1252.98 294.22 1253.59 293.522 1254.08C294.493 1254.35 295.288 1254.84 295.908 1255.53C296.529 1256.23 296.91 1257.1 297.052 1258.15C297.206 1259.29 297.049 1260.32 296.581 1261.24C296.127 1262.15 295.431 1262.9 294.493 1263.49C293.554 1264.07 292.46 1264.45 291.21 1264.62C289.961 1264.79 288.806 1264.72 287.746 1264.4C286.702 1264.08 285.832 1263.55 285.136 1262.8C284.454 1262.02 284.037 1261.07 283.883 1259.94C283.741 1258.89 283.876 1257.94 284.289 1257.11C284.699 1256.26 285.336 1255.58 286.201 1255.07ZM292.12 1250.68C292.01 1249.86 291.674 1249.26 291.113 1248.88C290.569 1248.5 289.872 1248.36 289.023 1248.48C288.19 1248.59 287.554 1248.9 287.115 1249.42C286.693 1249.94 286.538 1250.61 286.651 1251.44C286.753 1252.19 287.084 1252.76 287.645 1253.14C288.222 1253.52 288.911 1253.66 289.71 1253.55C290.51 1253.44 291.137 1253.13 291.593 1252.61C292.046 1252.07 292.222 1251.43 292.12 1250.68ZM290.056 1256.1C289.106 1256.23 288.364 1256.57 287.83 1257.14C287.312 1257.7 287.114 1258.43 287.236 1259.33C287.349 1260.16 287.725 1260.81 288.364 1261.26C289.017 1261.7 289.835 1261.85 290.818 1261.72C291.8 1261.59 292.539 1261.22 293.033 1260.61C293.527 1260 293.719 1259.28 293.608 1258.47C293.489 1257.58 293.105 1256.94 292.456 1256.54C291.805 1256.12 291.005 1255.97 290.056 1256.1ZM302.489 1262.86C301.856 1262.95 301.306 1262.83 300.837 1262.5C300.383 1262.15 300.117 1261.69 300.038 1261.11C299.959 1260.52 300.093 1260.01 300.441 1259.58C300.803 1259.12 301.301 1258.85 301.934 1258.76C302.55 1258.68 303.086 1258.81 303.54 1259.16C303.991 1259.49 304.257 1259.94 304.336 1260.52C304.415 1261.11 304.281 1261.63 303.936 1262.08C303.588 1262.52 303.106 1262.78 302.489 1262.86ZM310.362 1256.4C310.594 1257.11 310.971 1257.64 311.492 1257.98C312.027 1258.29 312.694 1258.4 313.494 1258.29C314.527 1258.15 315.219 1257.62 315.57 1256.71C315.919 1255.78 315.956 1254.3 315.68 1252.27C315.369 1252.85 314.884 1253.34 314.225 1253.74C313.583 1254.13 312.862 1254.38 312.062 1254.49C310.996 1254.63 310.001 1254.55 309.076 1254.23C308.165 1253.9 307.401 1253.33 306.784 1252.53C306.164 1251.72 305.77 1250.69 305.601 1249.44C305.35 1247.59 305.701 1246.05 306.654 1244.81C307.604 1243.57 309.029 1242.81 310.928 1242.56C313.294 1242.23 315.063 1242.77 316.234 1244.15C317.423 1245.53 318.224 1247.75 318.637 1250.8C318.93 1252.96 318.979 1254.77 318.783 1256.2C318.604 1257.63 318.105 1258.77 317.286 1259.61C316.483 1260.45 315.299 1260.97 313.733 1261.18C312.5 1261.35 311.419 1261.26 310.49 1260.91C309.558 1260.55 308.807 1260.01 308.237 1259.31C307.681 1258.59 307.306 1257.76 307.113 1256.84L310.362 1256.4ZM312.401 1251.54C313.267 1251.43 313.914 1251.07 314.342 1250.47C314.769 1249.86 314.922 1249.11 314.8 1248.21C314.667 1247.23 314.298 1246.51 313.692 1246.05C313.101 1245.57 312.356 1245.39 311.456 1245.51C310.557 1245.63 309.879 1246.01 309.422 1246.65C308.981 1247.27 308.822 1248.04 308.946 1248.96C309.066 1249.84 309.414 1250.53 309.99 1251.03C310.581 1251.51 311.385 1251.68 312.401 1251.54ZM324.392 1249.89C322.608 1249.25 321.594 1248.02 321.347 1246.21C321.226 1245.31 321.34 1244.46 321.69 1243.67C322.055 1242.85 322.666 1242.17 323.524 1241.61C324.396 1241.04 325.498 1240.66 326.831 1240.48C328.164 1240.3 329.319 1240.37 330.296 1240.69C331.287 1241 332.059 1241.5 332.61 1242.19C333.176 1242.86 333.52 1243.64 333.642 1244.54C333.766 1245.46 333.651 1246.3 333.296 1247.06C332.939 1247.8 332.411 1248.41 331.713 1248.9C332.684 1249.18 333.479 1249.66 334.099 1250.36C334.72 1251.05 335.101 1251.93 335.243 1252.98C335.397 1254.11 335.24 1255.14 334.772 1256.07C334.318 1256.98 333.622 1257.73 332.683 1258.31C331.745 1258.9 330.651 1259.27 329.401 1259.44C328.152 1259.61 326.997 1259.54 325.936 1259.23C324.893 1258.91 324.023 1258.37 323.327 1257.62C322.645 1256.85 322.228 1255.89 322.074 1254.76C321.932 1253.71 322.067 1252.77 322.48 1251.93C322.89 1251.08 323.527 1250.4 324.392 1249.89ZM330.311 1245.5C330.201 1244.69 329.865 1244.09 329.304 1243.7C328.76 1243.32 328.063 1243.19 327.214 1243.3C326.381 1243.41 325.745 1243.73 325.306 1244.25C324.884 1244.76 324.729 1245.44 324.842 1246.27C324.944 1247.02 325.275 1247.58 325.836 1247.97C326.413 1248.35 327.101 1248.48 327.901 1248.37C328.701 1248.26 329.328 1247.95 329.784 1247.43C330.237 1246.89 330.413 1246.25 330.311 1245.5ZM328.247 1250.92C327.297 1251.05 326.555 1251.4 326.021 1251.96C325.503 1252.52 325.305 1253.25 325.427 1254.15C325.54 1254.99 325.916 1255.63 326.555 1256.09C327.208 1256.53 328.026 1256.68 329.009 1256.54C329.991 1256.41 330.73 1256.04 331.224 1255.43C331.718 1254.82 331.91 1254.11 331.799 1253.29C331.68 1252.41 331.296 1251.76 330.647 1251.36C329.996 1250.94 329.196 1250.79 328.247 1250.92Z" fill="#212227"/>
<path d="M215.858 1317.66L213.654 1317.96L213.96 1320.22L212.421 1320.43L212.114 1318.17L209.91 1318.47L209.718 1317.05L211.922 1316.75L211.615 1314.48L213.154 1314.28L213.461 1316.54L215.665 1316.24L215.858 1317.66ZM216.75 1313.92L216.546 1312.42L219.356 1312.03L220.509 1320.54L218.829 1320.76L217.881 1313.77L216.75 1313.92ZM222.385 1318.4C223.047 1317.68 223.571 1317.08 223.959 1316.61C224.345 1316.13 224.655 1315.65 224.89 1315.16C225.124 1314.66 225.212 1314.2 225.153 1313.77C225.099 1313.37 224.963 1313.07 224.746 1312.87C224.529 1312.67 224.226 1312.6 223.837 1312.65C223.449 1312.7 223.167 1312.88 222.993 1313.17C222.818 1313.45 222.757 1313.82 222.811 1314.27L221.225 1314.49C221.129 1313.55 221.309 1312.81 221.765 1312.25C222.228 1311.7 222.864 1311.37 223.673 1311.26C224.559 1311.14 225.271 1311.28 225.81 1311.69C226.347 1312.1 226.668 1312.68 226.772 1313.45C226.855 1314.06 226.77 1314.66 226.518 1315.26C226.266 1315.85 225.959 1316.38 225.595 1316.85C225.23 1317.31 224.748 1317.88 224.15 1318.55L227.59 1318.08L227.773 1319.43L222.012 1320.21L221.848 1319L222.385 1318.4ZM227.762 1313.02C227.682 1312.43 227.79 1311.94 228.087 1311.56C228.391 1311.18 228.816 1310.95 229.36 1310.88C229.904 1310.81 230.37 1310.91 230.757 1311.2C231.152 1311.49 231.39 1311.93 231.47 1312.52C231.551 1313.12 231.44 1313.61 231.135 1313.99C230.838 1314.37 230.418 1314.6 229.874 1314.67C229.329 1314.74 228.86 1314.64 228.464 1314.35C228.077 1314.06 227.843 1313.62 227.762 1313.02ZM235.011 1310.26L231.535 1319.04L229.949 1319.26L233.414 1310.47L235.011 1310.26ZM229.481 1311.86C229.053 1311.92 228.881 1312.25 228.963 1312.86C229.046 1313.47 229.302 1313.75 229.729 1313.69C229.939 1313.66 230.092 1313.57 230.189 1313.4C230.284 1313.23 230.311 1312.99 230.269 1312.68C230.187 1312.07 229.924 1311.8 229.481 1311.86ZM233.512 1316.98C233.431 1316.38 233.539 1315.9 233.837 1315.52C234.141 1315.14 234.566 1314.91 235.11 1314.84C235.654 1314.77 236.116 1314.87 236.496 1315.16C236.882 1315.44 237.116 1315.88 237.197 1316.48C237.278 1317.08 237.17 1317.57 236.873 1317.95C236.584 1318.33 236.168 1318.56 235.623 1318.63C235.072 1318.7 234.602 1318.6 234.214 1318.31C233.827 1318.02 233.593 1317.58 233.512 1316.98ZM235.231 1315.82C234.788 1315.88 234.607 1316.21 234.69 1316.82C234.773 1317.43 235.036 1317.71 235.479 1317.65C235.914 1317.59 236.091 1317.26 236.007 1316.64C235.925 1316.04 235.666 1315.76 235.231 1315.82Z" fill="#23C581"/>
<path d="M242.537 1310.92C243.314 1310.82 243.976 1310.97 244.522 1311.38C245.068 1311.78 245.4 1312.42 245.521 1313.31L246.031 1317.08L244.981 1317.22L244.492 1313.6C244.405 1312.97 244.18 1312.5 243.816 1312.21C243.451 1311.91 242.992 1311.8 242.44 1311.87C241.88 1311.95 241.457 1312.19 241.17 1312.58C240.891 1312.98 240.797 1313.51 240.888 1314.18L241.366 1317.71L240.305 1317.85L239.439 1311.46L240.5 1311.32L240.624 1312.23C240.789 1311.87 241.039 1311.58 241.372 1311.35C241.713 1311.13 242.102 1310.98 242.537 1310.92ZM253.129 1312.61C253.156 1312.81 253.174 1313.03 253.181 1313.26L248.073 1313.95C248.197 1314.57 248.478 1315.04 248.915 1315.34C249.359 1315.64 249.861 1315.75 250.421 1315.67C250.879 1315.61 251.246 1315.46 251.521 1315.2C251.802 1314.94 251.981 1314.63 252.057 1314.25L253.2 1314.1C253.112 1314.74 252.838 1315.28 252.377 1315.74C251.916 1316.19 251.304 1316.47 250.542 1316.57C249.936 1316.65 249.373 1316.59 248.855 1316.39C248.343 1316.18 247.918 1315.84 247.579 1315.38C247.238 1314.91 247.023 1314.35 246.933 1313.69C246.844 1313.03 246.897 1312.43 247.094 1311.9C247.291 1311.36 247.609 1310.93 248.047 1310.6C248.492 1310.27 249.026 1310.06 249.648 1309.97C250.254 1309.89 250.809 1309.95 251.311 1310.15C251.813 1310.35 252.22 1310.67 252.532 1311.1C252.851 1311.52 253.05 1312.03 253.129 1312.61ZM252.003 1312.54C251.948 1312.13 251.812 1311.8 251.594 1311.54C251.375 1311.27 251.1 1311.08 250.769 1310.97C250.445 1310.86 250.096 1310.83 249.723 1310.88C249.187 1310.95 248.751 1311.18 248.416 1311.58C248.09 1311.97 247.94 1312.47 247.968 1313.09L252.003 1312.54ZM257.272 1315.66C256.783 1315.73 256.332 1315.7 255.922 1315.59C255.51 1315.48 255.171 1315.28 254.905 1315.02C254.639 1314.75 254.468 1314.42 254.392 1314.03L255.488 1313.88C255.562 1314.2 255.745 1314.44 256.037 1314.6C256.336 1314.77 256.704 1314.82 257.139 1314.76C257.543 1314.71 257.85 1314.58 258.059 1314.37C258.268 1314.16 258.354 1313.91 258.317 1313.64C258.279 1313.36 258.127 1313.17 257.86 1313.07C257.592 1312.97 257.189 1312.88 256.65 1312.82C256.159 1312.76 255.754 1312.69 255.434 1312.61C255.12 1312.52 254.838 1312.36 254.587 1312.14C254.342 1311.91 254.192 1311.59 254.136 1311.18C254.092 1310.85 254.148 1310.54 254.306 1310.24C254.463 1309.94 254.71 1309.69 255.047 1309.49C255.382 1309.28 255.779 1309.14 256.238 1309.08C256.945 1308.98 257.541 1309.08 258.025 1309.38C258.509 1309.68 258.808 1310.14 258.924 1310.76L257.863 1310.9C257.794 1310.57 257.622 1310.32 257.345 1310.15C257.077 1309.98 256.737 1309.93 256.325 1309.98C255.944 1310.03 255.652 1310.16 255.448 1310.35C255.245 1310.54 255.161 1310.77 255.197 1311.04C255.225 1311.25 255.315 1311.41 255.466 1311.53C255.624 1311.65 255.81 1311.73 256.024 1311.79C256.244 1311.84 256.544 1311.89 256.923 1311.94C257.399 1312 257.789 1312.08 258.093 1312.16C258.397 1312.24 258.666 1312.39 258.901 1312.6C259.143 1312.81 259.295 1313.11 259.355 1313.5C259.402 1313.85 259.348 1314.18 259.192 1314.49C259.035 1314.79 258.789 1315.05 258.454 1315.26C258.125 1315.47 257.731 1315.6 257.272 1315.66ZM263.365 1314.83C262.875 1314.9 262.425 1314.88 262.014 1314.77C261.602 1314.65 261.264 1314.46 260.998 1314.19C260.732 1313.92 260.56 1313.59 260.484 1313.21L261.58 1313.06C261.655 1313.37 261.838 1313.61 262.129 1313.78C262.429 1313.94 262.796 1314 263.232 1313.94C263.636 1313.88 263.943 1313.75 264.152 1313.54C264.361 1313.33 264.447 1313.09 264.41 1312.82C264.372 1312.54 264.22 1312.35 263.953 1312.25C263.685 1312.14 263.282 1312.06 262.743 1312C262.252 1311.94 261.846 1311.87 261.526 1311.78C261.213 1311.69 260.931 1311.53 260.679 1311.31C260.435 1311.09 260.284 1310.77 260.228 1310.35C260.184 1310.03 260.241 1309.72 260.398 1309.42C260.556 1309.12 260.803 1308.87 261.139 1308.66C261.475 1308.45 261.872 1308.31 262.331 1308.25C263.038 1308.16 263.634 1308.26 264.118 1308.56C264.601 1308.86 264.901 1309.31 265.016 1309.93L263.955 1310.08C263.887 1309.74 263.714 1309.49 263.438 1309.33C263.17 1309.16 262.829 1309.1 262.417 1309.16C262.036 1309.21 261.744 1309.33 261.541 1309.52C261.338 1309.72 261.254 1309.95 261.29 1310.21C261.318 1310.42 261.408 1310.59 261.559 1310.71C261.717 1310.82 261.903 1310.91 262.116 1310.97C262.337 1311.01 262.637 1311.07 263.016 1311.12C263.491 1311.18 263.881 1311.25 264.186 1311.34C264.489 1311.42 264.758 1311.56 264.993 1311.78C265.236 1311.99 265.387 1312.29 265.448 1312.68C265.495 1313.03 265.441 1313.35 265.284 1313.66C265.128 1313.97 264.882 1314.22 264.546 1314.44C264.218 1314.64 263.824 1314.77 263.365 1314.83ZM266.349 1311.05C266.26 1310.39 266.315 1309.8 266.513 1309.28C266.71 1308.74 267.019 1308.31 267.441 1307.98C267.87 1307.64 268.369 1307.43 268.936 1307.36C269.496 1307.28 269.998 1307.34 270.443 1307.52C270.888 1307.71 271.236 1307.97 271.488 1308.31L271.33 1307.14L272.402 1306.99L273.269 1313.39L272.196 1313.53L272.034 1312.34C271.875 1312.74 271.602 1313.1 271.216 1313.4C270.837 1313.7 270.371 1313.88 269.819 1313.96C269.252 1314.04 268.72 1313.97 268.223 1313.75C267.726 1313.53 267.312 1313.19 266.979 1312.72C266.646 1312.25 266.436 1311.69 266.349 1311.05ZM271.761 1310.32C271.696 1309.84 271.542 1309.43 271.299 1309.1C271.056 1308.77 270.755 1308.54 270.395 1308.39C270.042 1308.24 269.668 1308.2 269.271 1308.25C268.875 1308.3 268.526 1308.45 268.225 1308.68C267.923 1308.91 267.7 1309.22 267.554 1309.6C267.408 1309.98 267.368 1310.42 267.433 1310.9C267.499 1311.39 267.655 1311.8 267.898 1312.14C268.141 1312.47 268.439 1312.71 268.792 1312.86C269.144 1313.01 269.518 1313.05 269.914 1313C270.311 1312.94 270.66 1312.8 270.961 1312.57C271.269 1312.33 271.496 1312.02 271.642 1311.63C271.787 1311.24 271.826 1310.81 271.761 1310.32ZM280.447 1312.52C279.958 1312.59 279.507 1312.56 279.096 1312.45C278.684 1312.33 278.346 1312.14 278.08 1311.88C277.814 1311.61 277.642 1311.28 277.566 1310.89L278.663 1310.74C278.737 1311.06 278.92 1311.3 279.212 1311.46C279.511 1311.63 279.879 1311.68 280.314 1311.62C280.718 1311.57 281.025 1311.44 281.234 1311.22C281.443 1311.01 281.529 1310.77 281.492 1310.5C281.454 1310.22 281.302 1310.03 281.035 1309.93C280.767 1309.83 280.364 1309.74 279.825 1309.68C279.334 1309.62 278.929 1309.55 278.609 1309.47C278.295 1309.37 278.013 1309.22 277.761 1309C277.517 1308.77 277.367 1308.45 277.311 1308.04C277.266 1307.71 277.323 1307.4 277.481 1307.1C277.638 1306.8 277.885 1306.55 278.222 1306.35C278.557 1306.14 278.954 1306 279.413 1305.94C280.12 1305.84 280.716 1305.94 281.2 1306.24C281.684 1306.54 281.983 1307 282.099 1307.62L281.037 1307.76C280.969 1307.43 280.796 1307.18 280.52 1307.01C280.252 1306.84 279.912 1306.78 279.5 1306.84C279.119 1306.89 278.826 1307.01 278.623 1307.21C278.42 1307.4 278.336 1307.63 278.372 1307.9C278.4 1308.11 278.49 1308.27 278.641 1308.39C278.799 1308.51 278.985 1308.59 279.199 1308.65C279.419 1308.7 279.719 1308.75 280.098 1308.8C280.573 1308.86 280.963 1308.94 281.268 1309.02C281.571 1309.1 281.841 1309.25 282.075 1309.46C282.318 1309.67 282.469 1309.97 282.53 1310.36C282.577 1310.71 282.523 1311.04 282.366 1311.34C282.21 1311.65 281.964 1311.91 281.629 1312.12C281.3 1312.32 280.906 1312.46 280.447 1312.52ZM289.628 1307.66C289.655 1307.87 289.673 1308.08 289.68 1308.31L284.572 1309C284.696 1309.63 284.977 1310.09 285.414 1310.4C285.858 1310.69 286.36 1310.8 286.92 1310.73C287.378 1310.67 287.745 1310.51 288.02 1310.26C288.301 1310 288.48 1309.68 288.556 1309.31L289.699 1309.15C289.611 1309.79 289.337 1310.34 288.876 1310.79C288.415 1311.25 287.803 1311.52 287.041 1311.63C286.435 1311.71 285.872 1311.65 285.354 1311.44C284.842 1311.23 284.417 1310.9 284.078 1310.44C283.737 1309.97 283.522 1309.4 283.432 1308.74C283.343 1308.08 283.396 1307.48 283.593 1306.95C283.79 1306.42 284.108 1305.99 284.546 1305.66C284.991 1305.32 285.525 1305.11 286.147 1305.02C286.753 1304.94 287.308 1305 287.81 1305.2C288.312 1305.4 288.719 1305.72 289.031 1306.15C289.35 1306.58 289.549 1307.08 289.628 1307.66ZM288.502 1307.59C288.447 1307.19 288.311 1306.85 288.093 1306.59C287.874 1306.32 287.599 1306.13 287.268 1306.02C286.944 1305.91 286.595 1305.88 286.222 1305.93C285.686 1306 285.25 1306.24 284.915 1306.63C284.589 1307.02 284.439 1307.52 284.467 1308.14L288.502 1307.59ZM298.298 1303.37C298.795 1303.3 299.253 1303.34 299.67 1303.5C300.086 1303.65 300.435 1303.92 300.716 1304.3C300.997 1304.68 301.178 1305.16 301.258 1305.76L301.769 1309.52L300.719 1309.66L300.229 1306.05C300.143 1305.41 299.918 1304.95 299.553 1304.66C299.196 1304.36 298.749 1304.24 298.213 1304.32C297.661 1304.39 297.246 1304.63 296.968 1305.03C296.689 1305.43 296.594 1305.96 296.685 1306.62L297.162 1310.15L296.113 1310.29L295.623 1306.67C295.536 1306.04 295.311 1305.57 294.947 1305.28C294.59 1304.98 294.143 1304.87 293.607 1304.94C293.055 1305.02 292.64 1305.25 292.362 1305.66C292.082 1306.05 291.988 1306.58 292.079 1307.25L292.556 1310.77L291.495 1310.91L290.629 1304.52L291.69 1304.38L291.815 1305.3C291.979 1304.94 292.225 1304.64 292.55 1304.42C292.884 1304.19 293.264 1304.05 293.692 1303.99C294.228 1303.92 294.719 1303.97 295.163 1304.16C295.608 1304.34 295.963 1304.66 296.228 1305.1C296.346 1304.62 296.594 1304.23 296.972 1303.93C297.351 1303.62 297.793 1303.43 298.298 1303.37ZM302.677 1306.12C302.588 1305.47 302.643 1304.88 302.841 1304.35C303.038 1303.82 303.347 1303.39 303.769 1303.05C304.198 1302.72 304.697 1302.51 305.265 1302.43C305.824 1302.36 306.327 1302.41 306.771 1302.6C307.216 1302.78 307.564 1303.04 307.816 1303.38L307.658 1302.22L308.731 1302.07L309.597 1308.46L308.524 1308.61L308.363 1307.42C308.203 1307.82 307.931 1308.17 307.544 1308.48C307.165 1308.78 306.699 1308.96 306.147 1309.04C305.58 1309.11 305.048 1309.04 304.551 1308.82C304.055 1308.61 303.64 1308.26 303.307 1307.79C302.974 1307.32 302.764 1306.77 302.677 1306.12ZM308.089 1305.4C308.024 1304.92 307.87 1304.51 307.627 1304.18C307.384 1303.85 307.083 1303.61 306.723 1303.47C306.37 1303.32 305.996 1303.27 305.599 1303.33C305.203 1303.38 304.854 1303.52 304.553 1303.75C304.252 1303.98 304.028 1304.29 303.882 1304.68C303.736 1305.06 303.696 1305.49 303.761 1305.97C303.828 1306.46 303.983 1306.88 304.227 1307.22C304.469 1307.55 304.767 1307.79 305.12 1307.94C305.472 1308.08 305.846 1308.13 306.243 1308.07C306.639 1308.02 306.988 1307.88 307.289 1307.65C307.597 1307.41 307.824 1307.09 307.97 1306.71C308.115 1306.32 308.155 1305.88 308.089 1305.4ZM313.622 1301.29C314.399 1301.18 315.061 1301.34 315.607 1301.74C316.152 1302.15 316.485 1302.79 316.605 1303.68L317.116 1307.44L316.066 1307.58L315.576 1303.97C315.49 1303.33 315.265 1302.87 314.901 1302.58C314.535 1302.28 314.077 1302.17 313.525 1302.24C312.965 1302.32 312.542 1302.55 312.255 1302.95C311.976 1303.34 311.882 1303.87 311.972 1304.54L312.451 1308.07L311.39 1308.22L310.524 1301.83L311.585 1301.68L311.708 1302.59C311.874 1302.24 312.124 1301.95 312.457 1301.72C312.798 1301.49 313.186 1301.35 313.622 1301.29ZM318.017 1304.04C317.928 1303.39 317.983 1302.8 318.181 1302.27C318.378 1301.74 318.687 1301.31 319.109 1300.97C319.538 1300.64 320.037 1300.43 320.604 1300.35C321.164 1300.28 321.666 1300.33 322.111 1300.52C322.556 1300.7 322.904 1300.97 323.156 1301.3L322.998 1300.14L324.07 1299.99L324.936 1306.38L323.864 1306.53L323.702 1305.34C323.543 1305.74 323.27 1306.09 322.884 1306.4C322.505 1306.7 322.039 1306.88 321.487 1306.96C320.92 1307.03 320.388 1306.96 319.891 1306.75C319.394 1306.53 318.98 1306.18 318.647 1305.71C318.314 1305.25 318.104 1304.69 318.017 1304.04ZM323.429 1303.32C323.364 1302.84 323.21 1302.43 322.967 1302.1C322.724 1301.77 322.423 1301.53 322.063 1301.39C321.71 1301.24 321.336 1301.19 320.939 1301.25C320.543 1301.3 320.194 1301.44 319.893 1301.67C319.591 1301.91 319.368 1302.21 319.222 1302.6C319.076 1302.98 319.036 1303.41 319.101 1303.9C319.167 1304.39 319.323 1304.8 319.566 1305.14C319.809 1305.47 320.107 1305.71 320.46 1305.86C320.812 1306 321.186 1306.05 321.582 1305.99C321.979 1305.94 322.328 1305.8 322.629 1305.57C322.937 1305.33 323.164 1305.02 323.31 1304.63C323.455 1304.24 323.494 1303.8 323.429 1303.32Z" fill="#707B81"/>
<rect x="465.666" y="1151.3" width="213.506" height="169.796" rx="16.3912" transform="rotate(4.18945 465.666 1151.3)" fill="white" stroke="#E9EDF7" stroke-width="0.840576"/>
<circle opacity="0.15" cx="499.462" cy="1190.44" r="16.8115" transform="rotate(4.18945 499.462 1190.44)" fill="#6DACE7"/>
<path d="M537.064 1187.79L536.973 1189.03L534.492 1188.85L533.9 1196.93L532.371 1196.81L532.962 1188.74L530.468 1188.56L530.559 1187.31L537.064 1187.79ZM541.127 1197.58C540.43 1197.53 539.811 1197.32 539.27 1196.97C538.73 1196.61 538.321 1196.13 538.041 1195.53C537.761 1194.93 537.649 1194.24 537.705 1193.48C537.76 1192.73 537.974 1192.08 538.348 1191.52C538.721 1190.96 539.206 1190.55 539.801 1190.28C540.396 1190.01 541.047 1189.9 541.753 1189.95C542.46 1190 543.088 1190.2 543.637 1190.56C544.186 1190.91 544.605 1191.39 544.893 1192C545.182 1192.61 545.298 1193.28 545.243 1194.03C545.188 1194.79 544.97 1195.44 544.587 1196C544.205 1196.55 543.707 1196.97 543.093 1197.25C542.489 1197.52 541.834 1197.63 541.127 1197.58ZM541.224 1196.25C541.618 1196.28 541.991 1196.21 542.345 1196.05C542.707 1195.89 543.01 1195.62 543.252 1195.26C543.494 1194.9 543.635 1194.46 543.674 1193.92C543.713 1193.38 543.644 1192.92 543.465 1192.54C543.287 1192.15 543.034 1191.85 542.708 1191.64C542.382 1191.42 542.023 1191.3 541.629 1191.28C541.236 1191.25 540.862 1191.31 540.509 1191.48C540.164 1191.64 539.88 1191.9 539.655 1192.26C539.432 1192.62 539.3 1193.06 539.261 1193.6C539.203 1194.39 539.359 1195.02 539.729 1195.49C540.109 1195.95 540.607 1196.2 541.224 1196.25ZM548.718 1191.84L548.418 1195.93C548.398 1196.2 548.446 1196.41 548.562 1196.54C548.687 1196.67 548.907 1196.74 549.22 1196.77L550.158 1196.84L550.065 1198.11L548.858 1198.02C548.169 1197.97 547.654 1197.77 547.311 1197.42C546.967 1197.07 546.822 1196.54 546.876 1195.81L547.175 1191.72L546.303 1191.66L546.395 1190.41L547.267 1190.47L547.401 1188.64L548.944 1188.75L548.809 1190.59L550.606 1190.72L550.515 1191.97L548.718 1191.84ZM551.238 1194.45C551.292 1193.7 551.492 1193.06 551.838 1192.51C552.193 1191.96 552.646 1191.55 553.196 1191.27C553.757 1190.99 554.359 1190.87 555.002 1190.92C555.584 1190.96 556.08 1191.12 556.493 1191.38C556.914 1191.64 557.242 1191.94 557.477 1192.3L557.555 1191.23L559.098 1191.34L558.557 1198.73L557.014 1198.62L557.095 1197.52C556.81 1197.85 556.435 1198.11 555.971 1198.31C555.507 1198.51 554.989 1198.59 554.417 1198.55C553.782 1198.5 553.212 1198.3 552.708 1197.94C552.205 1197.57 551.818 1197.08 551.548 1196.48C551.287 1195.87 551.184 1195.19 551.238 1194.45ZM557.285 1194.92C557.323 1194.41 557.248 1193.96 557.061 1193.57C556.882 1193.17 556.631 1192.87 556.305 1192.65C555.98 1192.43 555.621 1192.3 555.227 1192.27C554.834 1192.24 554.46 1192.31 554.106 1192.49C553.752 1192.65 553.454 1192.91 553.212 1193.27C552.979 1193.62 552.845 1194.05 552.807 1194.56C552.77 1195.07 552.84 1195.53 553.017 1195.93C553.204 1196.33 553.46 1196.64 553.784 1196.87C554.119 1197.09 554.478 1197.22 554.863 1197.25C555.256 1197.28 555.63 1197.21 555.984 1197.03C556.338 1196.86 556.632 1196.6 556.865 1196.23C557.108 1195.87 557.248 1195.43 557.285 1194.92ZM562.821 1189.07L562.094 1198.99L560.565 1198.88L561.292 1188.95L562.821 1189.07ZM567.35 1195.63C567.404 1194.89 567.604 1194.24 567.95 1193.69C568.305 1193.14 568.758 1192.73 569.308 1192.45C569.868 1192.17 570.475 1192.05 571.127 1192.1C571.61 1192.14 572.076 1192.28 572.526 1192.53C572.985 1192.77 573.34 1193.07 573.591 1193.44L573.853 1189.87L575.395 1189.99L574.668 1199.91L573.126 1199.8L573.207 1198.69C572.931 1199.03 572.56 1199.29 572.096 1199.49C571.641 1199.69 571.127 1199.77 570.555 1199.73C569.911 1199.69 569.333 1199.48 568.82 1199.12C568.316 1198.75 567.93 1198.26 567.659 1197.66C567.398 1197.05 567.295 1196.37 567.35 1195.63ZM573.397 1196.1C573.434 1195.59 573.359 1195.14 573.172 1194.75C572.994 1194.36 572.742 1194.05 572.417 1193.83C572.092 1193.61 571.732 1193.48 571.339 1193.45C570.945 1193.42 570.571 1193.49 570.217 1193.67C569.864 1193.83 569.566 1194.09 569.324 1194.45C569.091 1194.8 568.956 1195.23 568.919 1195.74C568.882 1196.25 568.952 1196.71 569.129 1197.11C569.316 1197.51 569.571 1197.82 569.896 1198.05C570.23 1198.27 570.59 1198.4 570.974 1198.43C571.368 1198.46 571.741 1198.39 572.096 1198.21C572.45 1198.04 572.744 1197.78 572.977 1197.41C573.22 1197.05 573.36 1196.61 573.397 1196.1ZM583.734 1196.68C583.714 1196.96 583.678 1197.21 583.626 1197.43L577.979 1197.01C577.98 1197.61 578.165 1198.1 578.532 1198.48C578.899 1198.87 579.369 1199.08 579.941 1199.13C580.764 1199.19 581.37 1198.88 581.761 1198.22L583.41 1198.34C583.137 1199 582.689 1199.53 582.067 1199.93C581.454 1200.31 580.714 1200.48 579.847 1200.41C579.14 1200.36 578.517 1200.16 577.977 1199.8C577.446 1199.44 577.04 1198.96 576.76 1198.37C576.49 1197.76 576.383 1197.08 576.438 1196.32C576.494 1195.56 576.695 1194.9 577.041 1194.35C577.396 1193.8 577.863 1193.38 578.44 1193.11C579.026 1192.84 579.682 1192.73 580.406 1192.78C581.103 1192.83 581.714 1193.03 582.237 1193.37C582.76 1193.72 583.153 1194.18 583.417 1194.75C583.681 1195.32 583.787 1195.96 583.734 1196.68ZM582.174 1196.08C582.206 1195.52 582.038 1195.05 581.669 1194.68C581.301 1194.31 580.826 1194.11 580.245 1194.06C579.717 1194.02 579.253 1194.16 578.852 1194.47C578.453 1194.78 578.196 1195.21 578.083 1195.78L582.174 1196.08ZM590.43 1194.73C590.715 1194.41 591.089 1194.15 591.553 1193.95C592.017 1193.75 592.531 1193.67 593.094 1193.71C593.738 1193.76 594.312 1193.96 594.816 1194.32C595.33 1194.67 595.717 1195.15 595.98 1195.74C596.242 1196.34 596.346 1197.01 596.291 1197.75C596.237 1198.49 596.036 1199.14 595.689 1199.71C595.342 1200.27 594.888 1200.7 594.328 1200.99C593.777 1201.27 593.179 1201.39 592.535 1201.34C591.972 1201.3 591.479 1201.15 591.057 1200.9C590.636 1200.63 590.3 1200.32 590.047 1199.96L589.711 1204.55L588.182 1204.44L588.981 1193.53L590.51 1193.64L590.43 1194.73ZM594.735 1197.63C594.773 1197.12 594.697 1196.68 594.51 1196.3C594.331 1195.9 594.075 1195.6 593.74 1195.39C593.415 1195.17 593.055 1195.04 592.662 1195.01C592.277 1194.99 591.903 1195.06 591.54 1195.23C591.186 1195.4 590.888 1195.67 590.646 1196.03C590.412 1196.39 590.277 1196.82 590.24 1197.33C590.203 1197.84 590.273 1198.3 590.45 1198.69C590.637 1199.09 590.893 1199.39 591.219 1199.61C591.553 1199.84 591.913 1199.96 592.297 1199.99C592.691 1200.02 593.064 1199.95 593.419 1199.78C593.782 1199.6 594.081 1199.32 594.315 1198.95C594.558 1198.58 594.698 1198.14 594.735 1197.63ZM604.588 1198.21C604.568 1198.48 604.531 1198.73 604.479 1198.95L598.832 1198.54C598.834 1199.13 599.018 1199.62 599.385 1200.01C599.753 1200.4 600.222 1200.61 600.795 1200.65C601.617 1200.71 602.224 1200.41 602.614 1199.75L604.264 1199.87C603.99 1200.53 603.543 1201.06 602.92 1201.46C602.308 1201.84 601.568 1202 600.7 1201.94C599.994 1201.89 599.37 1201.69 598.83 1201.33C598.299 1200.97 597.894 1200.49 597.614 1199.89C597.343 1199.29 597.236 1198.61 597.292 1197.85C597.347 1197.09 597.548 1196.43 597.894 1195.88C598.25 1195.32 598.716 1194.91 599.293 1194.64C599.88 1194.36 600.535 1194.26 601.259 1194.31C601.957 1194.36 602.567 1194.56 603.09 1194.9C603.614 1195.24 604.007 1195.71 604.27 1196.28C604.534 1196.85 604.64 1197.49 604.588 1198.21ZM603.027 1197.61C603.059 1197.04 602.891 1196.58 602.523 1196.21C602.154 1195.84 601.679 1195.63 601.098 1195.59C600.57 1195.55 600.106 1195.69 599.706 1196C599.306 1196.3 599.049 1196.74 598.936 1197.31L603.027 1197.61ZM605.572 1198.43C605.627 1197.68 605.827 1197.04 606.173 1196.49C606.528 1195.94 606.98 1195.53 607.531 1195.25C608.091 1194.97 608.697 1194.85 609.35 1194.9C609.833 1194.94 610.299 1195.08 610.748 1195.33C611.207 1195.57 611.562 1195.87 611.814 1196.24L612.075 1192.67L613.618 1192.79L612.891 1202.71L611.348 1202.6L611.43 1201.49C611.153 1201.83 610.783 1202.09 610.319 1202.29C609.864 1202.49 609.35 1202.57 608.778 1202.53C608.134 1202.48 607.555 1202.28 607.042 1201.92C606.539 1201.55 606.152 1201.06 605.882 1200.46C605.621 1199.85 605.518 1199.17 605.572 1198.43ZM611.62 1198.9C611.657 1198.39 611.582 1197.94 611.395 1197.55C611.217 1197.15 610.965 1196.85 610.64 1196.63C610.314 1196.41 609.955 1196.28 609.561 1196.25C609.168 1196.22 608.794 1196.29 608.44 1196.47C608.086 1196.63 607.788 1196.89 607.546 1197.25C607.314 1197.6 607.179 1198.03 607.141 1198.54C607.104 1199.05 607.174 1199.51 607.352 1199.91C607.538 1200.31 607.794 1200.62 608.119 1200.85C608.453 1201.07 608.812 1201.2 609.197 1201.23C609.59 1201.26 609.964 1201.19 610.318 1201.01C610.673 1200.84 610.966 1200.58 611.199 1200.21C611.442 1199.85 611.582 1199.41 611.62 1198.9ZM616.29 1194.55C616.013 1194.53 615.788 1194.42 615.614 1194.21C615.44 1194.01 615.363 1193.77 615.383 1193.5C615.403 1193.22 615.514 1192.99 615.716 1192.82C615.917 1192.64 616.157 1192.57 616.434 1192.59C616.702 1192.61 616.923 1192.72 617.097 1192.92C617.271 1193.12 617.348 1193.36 617.328 1193.64C617.308 1193.92 617.197 1194.14 616.995 1194.31C616.794 1194.49 616.559 1194.57 616.29 1194.55ZM616.97 1195.58L616.428 1202.97L614.899 1202.86L615.441 1195.47L616.97 1195.58ZM618.199 1199.35C618.254 1198.61 618.454 1197.96 618.8 1197.41C619.155 1196.86 619.608 1196.45 620.158 1196.18C620.718 1195.9 621.325 1195.78 621.977 1195.83C622.46 1195.86 622.926 1196 623.376 1196.25C623.835 1196.49 624.19 1196.8 624.441 1197.17L624.703 1193.6L626.245 1193.71L625.518 1203.64L623.976 1203.52L624.057 1202.41C623.781 1202.75 623.41 1203.02 622.946 1203.22C622.491 1203.42 621.977 1203.5 621.405 1203.46C620.761 1203.41 620.183 1203.21 619.67 1202.84C619.166 1202.48 618.78 1201.99 618.509 1201.38C618.248 1200.77 618.145 1200.09 618.199 1199.35ZM624.247 1199.82C624.284 1199.31 624.209 1198.86 624.022 1198.47C623.844 1198.08 623.592 1197.77 623.267 1197.55C622.942 1197.33 622.582 1197.21 622.189 1197.18C621.795 1197.15 621.421 1197.22 621.067 1197.39C620.714 1197.55 620.416 1197.82 620.174 1198.18C619.941 1198.53 619.806 1198.96 619.769 1199.47C619.732 1199.98 619.802 1200.43 619.979 1200.83C620.166 1201.23 620.421 1201.55 620.746 1201.78C621.08 1202 621.44 1202.12 621.824 1202.15C622.218 1202.18 622.591 1202.11 622.946 1201.94C623.3 1201.77 623.594 1201.5 623.827 1201.14C624.07 1200.77 624.21 1200.33 624.247 1199.82ZM630.724 1204.14C630.026 1204.09 629.407 1203.89 628.867 1203.53C628.327 1203.17 627.917 1202.69 627.637 1202.09C627.358 1201.49 627.246 1200.81 627.302 1200.05C627.357 1199.29 627.571 1198.64 627.944 1198.08C628.318 1197.53 628.802 1197.11 629.397 1196.84C629.992 1196.57 630.643 1196.46 631.35 1196.51C632.056 1196.56 632.684 1196.77 633.233 1197.12C633.783 1197.48 634.202 1197.96 634.49 1198.56C634.778 1199.17 634.895 1199.85 634.84 1200.6C634.785 1201.35 634.566 1202 634.184 1202.56C633.801 1203.12 633.303 1203.53 632.69 1203.81C632.085 1204.08 631.43 1204.19 630.724 1204.14ZM630.821 1202.81C631.214 1202.84 631.588 1202.77 631.941 1202.61C632.304 1202.45 632.606 1202.19 632.848 1201.83C633.09 1201.47 633.231 1201.02 633.27 1200.48C633.31 1199.95 633.24 1199.49 633.061 1199.11C632.883 1198.71 632.631 1198.41 632.305 1198.2C631.979 1197.99 631.619 1197.87 631.226 1197.84C630.832 1197.81 630.459 1197.88 630.105 1198.04C629.761 1198.2 629.476 1198.47 629.252 1198.83C629.028 1199.18 628.897 1199.62 628.858 1200.16C628.799 1200.96 628.955 1201.59 629.326 1202.05C629.705 1202.51 630.204 1202.77 630.821 1202.81ZM638.754 1204.73C638.173 1204.69 637.657 1204.54 637.207 1204.3C636.767 1204.06 636.426 1203.74 636.184 1203.37C635.942 1202.98 635.829 1202.56 635.844 1202.11L637.427 1202.23C637.431 1202.55 637.559 1202.82 637.811 1203.05C638.074 1203.28 638.41 1203.41 638.822 1203.44C639.251 1203.47 639.588 1203.41 639.832 1203.27C640.086 1203.12 640.222 1202.91 640.241 1202.65C640.261 1202.38 640.142 1202.16 639.884 1202.01C639.634 1201.85 639.229 1201.67 638.669 1201.47C638.126 1201.28 637.685 1201.1 637.347 1200.93C637.008 1200.76 636.72 1200.52 636.483 1200.21C636.254 1199.89 636.157 1199.49 636.193 1199.01C636.221 1198.62 636.364 1198.27 636.62 1197.96C636.877 1197.65 637.227 1197.41 637.67 1197.26C638.121 1197.1 638.629 1197.05 639.192 1197.09C640.033 1197.15 640.692 1197.41 641.171 1197.88C641.659 1198.34 641.893 1198.93 641.876 1199.67L640.346 1199.56C640.344 1199.23 640.229 1198.95 640.002 1198.74C639.775 1198.52 639.456 1198.4 639.044 1198.37C638.642 1198.34 638.328 1198.39 638.102 1198.53C637.876 1198.67 637.754 1198.86 637.736 1199.11C637.722 1199.31 637.781 1199.48 637.914 1199.62C638.048 1199.77 638.214 1199.89 638.414 1199.98C638.614 1200.07 638.911 1200.19 639.305 1200.33C639.831 1200.51 640.259 1200.69 640.587 1200.87C640.926 1201.04 641.21 1201.28 641.439 1201.58C641.668 1201.88 641.77 1202.27 641.744 1202.75C641.714 1203.17 641.57 1203.54 641.313 1203.85C641.056 1204.16 640.707 1204.4 640.264 1204.56C639.83 1204.71 639.326 1204.77 638.754 1204.73Z" fill="#212227"/>
<path d="M492.718 1239.82L484.57 1239.22L484.255 1243.52C484.639 1243.11 485.168 1242.79 485.841 1242.57C486.516 1242.34 487.222 1242.24 487.96 1242.3C489.301 1242.4 490.378 1242.77 491.19 1243.42C492.002 1244.07 492.567 1244.87 492.885 1245.82C493.205 1246.75 493.326 1247.74 493.25 1248.78C493.109 1250.71 492.442 1252.22 491.249 1253.31C490.074 1254.4 488.471 1254.88 486.443 1254.73C484.531 1254.59 483.04 1254 481.97 1252.96C480.9 1251.92 480.346 1250.62 480.308 1249.07L483.729 1249.32C483.83 1250 484.126 1250.56 484.617 1251C485.124 1251.45 485.788 1251.7 486.61 1251.76C487.599 1251.83 488.368 1251.57 488.916 1250.99C489.465 1250.41 489.776 1249.6 489.851 1248.58C489.927 1247.54 489.725 1246.74 489.245 1246.16C488.782 1245.57 488.056 1245.24 487.067 1245.17C486.363 1245.11 485.763 1245.25 485.268 1245.57C484.773 1245.88 484.403 1246.33 484.159 1246.9L480.789 1246.65L481.577 1235.89L492.945 1236.72L492.718 1239.82ZM505.974 1242.33C505.858 1241.61 505.604 1241.06 505.21 1240.68C504.834 1240.3 504.26 1240.08 503.489 1240.02C502.332 1239.94 501.442 1240.34 500.82 1241.24C500.216 1242.13 499.829 1243.61 499.659 1245.71C500.11 1245.07 500.735 1244.59 501.533 1244.28C502.333 1243.95 503.185 1243.82 504.091 1243.88C505.18 1243.96 506.127 1244.27 506.931 1244.8C507.735 1245.33 508.339 1246.07 508.742 1247.01C509.146 1247.93 509.302 1249.02 509.21 1250.28C509.123 1251.47 508.802 1252.52 508.247 1253.42C507.71 1254.31 506.961 1254.98 506.001 1255.43C505.041 1255.88 503.924 1256.06 502.649 1255.97C500.906 1255.84 499.559 1255.35 498.609 1254.51C497.677 1253.66 497.06 1252.54 496.758 1251.14C496.474 1249.72 496.407 1247.99 496.555 1245.96C496.78 1242.89 497.478 1240.62 498.648 1239.14C499.82 1237.64 501.546 1236.97 503.826 1237.14C505.587 1237.27 506.918 1237.85 507.821 1238.87C508.723 1239.9 509.197 1241.13 509.244 1242.57L505.974 1242.33ZM503.074 1246.72C502.185 1246.65 501.42 1246.86 500.778 1247.33C500.137 1247.81 499.78 1248.54 499.707 1249.53C499.635 1250.52 499.854 1251.32 500.366 1251.93C500.894 1252.54 501.67 1252.89 502.692 1252.96C503.598 1253.03 504.331 1252.8 504.891 1252.29C505.468 1251.77 505.791 1251.05 505.86 1250.11C505.931 1249.14 505.728 1248.35 505.25 1247.74C504.788 1247.13 504.063 1246.79 503.074 1246.72ZM515.999 1251.71C516.079 1252.46 516.339 1253.05 516.779 1253.49C517.237 1253.91 517.869 1254.15 518.673 1254.21C519.713 1254.28 520.499 1253.91 521.031 1253.09C521.564 1252.25 521.906 1250.81 522.056 1248.77C521.631 1249.27 521.055 1249.65 520.329 1249.9C519.619 1250.16 518.862 1250.25 518.057 1250.19C516.984 1250.11 516.028 1249.82 515.188 1249.32C514.366 1248.81 513.735 1248.1 513.296 1247.19C512.858 1246.26 512.685 1245.17 512.778 1243.91C512.914 1242.05 513.575 1240.62 514.762 1239.61C515.949 1238.58 517.499 1238.14 519.41 1238.28C521.791 1238.46 523.412 1239.34 524.273 1240.94C525.15 1242.54 525.476 1244.87 525.252 1247.94C525.092 1250.12 524.768 1251.89 524.281 1253.25C523.81 1254.62 523.087 1255.63 522.112 1256.28C521.154 1256.93 519.887 1257.2 518.311 1257.09C517.07 1257 516.031 1256.69 515.193 1256.15C514.357 1255.6 513.733 1254.92 513.32 1254.12C512.925 1253.3 512.728 1252.41 512.73 1251.47L515.999 1251.71ZM518.997 1247.38C519.869 1247.44 520.576 1247.22 521.118 1246.73C521.66 1246.23 521.965 1245.52 522.031 1244.62C522.103 1243.63 521.891 1242.85 521.394 1242.27C520.914 1241.68 520.222 1241.35 519.317 1241.28C518.411 1241.22 517.669 1241.45 517.091 1241.98C516.531 1242.5 516.217 1243.21 516.149 1244.14C516.084 1245.02 516.282 1245.77 516.744 1246.38C517.223 1246.97 517.974 1247.3 518.997 1247.38ZM531.812 1254.34L528.351 1261.19L526.088 1261.02L528.24 1254.07L531.812 1254.34ZM535.074 1254.3C536.782 1253.07 538.146 1252.05 539.167 1251.23C540.189 1250.4 541.054 1249.52 541.762 1248.59C542.471 1247.67 542.859 1246.73 542.928 1245.79C542.991 1244.94 542.839 1244.25 542.472 1243.74C542.105 1243.22 541.503 1242.93 540.664 1242.87C539.826 1242.81 539.159 1243.05 538.665 1243.59C538.172 1244.11 537.881 1244.85 537.793 1245.82L534.373 1245.57C534.587 1243.57 535.294 1242.08 536.494 1241.13C537.71 1240.17 539.19 1239.76 540.934 1239.88C542.845 1240.02 544.275 1240.64 545.223 1241.74C546.172 1242.82 546.585 1244.19 546.464 1245.85C546.368 1247.16 545.924 1248.38 545.133 1249.52C544.342 1250.66 543.461 1251.64 542.49 1252.46C541.521 1253.27 540.262 1254.24 538.712 1255.37L546.131 1255.92L545.917 1258.83L533.493 1257.92L533.685 1255.31L535.074 1254.3ZM549.157 1245.74C549.364 1244.07 550.045 1242.83 551.202 1242C552.376 1241.16 553.86 1240.8 555.654 1240.94C556.878 1241.03 557.91 1241.32 558.75 1241.82C559.591 1242.3 560.202 1242.93 560.584 1243.7C560.984 1244.45 561.15 1245.29 561.083 1246.21C561.005 1247.27 560.663 1248.15 560.056 1248.84C559.466 1249.53 558.785 1249.96 558.012 1250.16L558.005 1250.26C558.955 1250.63 559.67 1251.23 560.15 1252.04C560.647 1252.85 560.851 1253.86 560.763 1255.07C560.689 1256.07 560.389 1256.95 559.862 1257.7C559.351 1258.46 558.627 1259.03 557.688 1259.42C556.768 1259.79 555.679 1259.93 554.421 1259.83C552.527 1259.7 551.019 1259.11 549.899 1258.06C548.778 1257.02 548.253 1255.57 548.322 1253.7L551.742 1253.95C551.716 1254.77 551.944 1255.46 552.427 1256C552.928 1256.52 553.639 1256.82 554.561 1256.89C555.416 1256.95 556.087 1256.76 556.575 1256.33C557.08 1255.87 557.36 1255.27 557.415 1254.52C557.489 1253.51 557.223 1252.77 556.618 1252.28C556.013 1251.8 555.039 1251.51 553.698 1251.41L552.969 1251.36L553.18 1248.47L553.91 1248.52C556.291 1248.69 557.539 1247.99 557.656 1246.39C557.709 1245.67 557.532 1245.09 557.126 1244.66C556.736 1244.23 556.139 1243.98 555.334 1243.92C554.546 1243.86 553.918 1244.04 553.45 1244.44C553 1244.83 552.718 1245.35 552.603 1246L549.157 1245.74ZM563.862 1250.94C564.075 1248.04 564.761 1245.81 565.921 1244.24C567.097 1242.68 568.901 1241.98 571.333 1242.16C573.764 1242.34 575.439 1243.29 576.358 1245.01C577.294 1246.73 577.656 1249.04 577.443 1251.94C577.23 1254.86 576.534 1257.11 575.356 1258.69C574.195 1260.27 572.399 1260.97 569.967 1260.8C567.536 1260.62 565.853 1259.66 564.919 1257.92C564.001 1256.19 563.649 1253.86 563.862 1250.94ZM573.973 1251.68C574.063 1250.44 574.056 1249.4 573.949 1248.55C573.861 1247.68 573.594 1246.96 573.147 1246.39C572.717 1245.82 572.032 1245.5 571.093 1245.43C570.154 1245.36 569.422 1245.58 568.896 1246.08C568.388 1246.58 568.018 1247.25 567.788 1248.1C567.575 1248.92 567.424 1249.96 567.333 1251.2C567.24 1252.47 567.236 1253.55 567.324 1254.43C567.412 1255.3 567.679 1256.02 568.126 1256.59C568.574 1257.15 569.268 1257.46 570.207 1257.53C571.146 1257.6 571.877 1257.39 572.402 1256.9C572.927 1256.4 573.297 1255.73 573.51 1254.89C573.725 1254.03 573.879 1252.96 573.973 1251.68Z" fill="#212227"/>
<path d="M496.85 1298.45L494.631 1298.29L494.465 1300.57L492.915 1300.45L493.082 1298.18L490.864 1298.01L490.969 1296.58L493.187 1296.75L493.354 1294.47L494.903 1294.58L494.736 1296.86L496.955 1297.02L496.85 1298.45ZM498.495 1294.97L498.606 1293.46L501.434 1293.67L500.807 1302.22L499.117 1302.1L499.633 1295.06L498.495 1294.97ZM504.194 1297.92C503.442 1297.45 503.097 1296.79 503.159 1295.94C503.19 1295.52 503.324 1295.14 503.56 1294.81C503.805 1294.48 504.15 1294.22 504.596 1294.05C505.049 1293.87 505.589 1293.81 506.215 1293.85C506.841 1293.9 507.361 1294.04 507.776 1294.29C508.199 1294.52 508.504 1294.82 508.689 1295.19C508.883 1295.55 508.965 1295.94 508.934 1296.36C508.902 1296.8 508.769 1297.17 508.533 1297.48C508.299 1297.79 507.999 1298.02 507.633 1298.17C508.05 1298.39 508.366 1298.69 508.582 1299.06C508.799 1299.44 508.889 1299.88 508.853 1300.37C508.814 1300.9 508.643 1301.36 508.339 1301.74C508.045 1302.11 507.655 1302.38 507.17 1302.56C506.685 1302.74 506.149 1302.8 505.562 1302.76C504.976 1302.72 504.455 1302.57 504.001 1302.33C503.555 1302.08 503.209 1301.75 502.964 1301.34C502.727 1300.92 502.628 1300.45 502.667 1299.92C502.703 1299.42 502.856 1299.01 503.125 1298.66C503.394 1298.32 503.751 1298.07 504.194 1297.92ZM507.32 1296.48C507.348 1296.1 507.253 1295.79 507.033 1295.56C506.822 1295.34 506.517 1295.21 506.118 1295.18C505.727 1295.15 505.406 1295.23 505.156 1295.43C504.913 1295.62 504.778 1295.91 504.749 1296.31C504.723 1296.66 504.82 1296.95 505.039 1297.18C505.266 1297.41 505.568 1297.53 505.943 1297.56C506.319 1297.59 506.636 1297.51 506.894 1297.31C507.152 1297.11 507.294 1296.83 507.32 1296.48ZM505.856 1298.76C505.41 1298.73 505.037 1298.81 504.739 1299.02C504.449 1299.23 504.288 1299.54 504.257 1299.96C504.228 1300.35 504.338 1300.69 504.586 1300.95C504.842 1301.22 505.2 1301.37 505.662 1301.4C506.124 1301.43 506.497 1301.33 506.781 1301.1C507.065 1300.87 507.222 1300.57 507.25 1300.18C507.28 1299.77 507.167 1299.44 506.91 1299.19C506.653 1298.94 506.302 1298.79 505.856 1298.76ZM510.257 1296.43C510.301 1295.83 510.507 1295.38 510.876 1295.07C511.253 1294.76 511.715 1294.62 512.263 1294.66C512.811 1294.7 513.244 1294.9 513.564 1295.26C513.891 1295.63 514.033 1296.11 513.99 1296.7C513.946 1297.3 513.735 1297.76 513.358 1298.07C512.989 1298.38 512.531 1298.52 511.983 1298.48C511.436 1298.44 510.998 1298.23 510.671 1297.87C510.351 1297.51 510.213 1297.03 510.257 1296.43ZM517.921 1295.22L512.707 1303.1L511.111 1302.98L516.313 1295.1L517.921 1295.22ZM512.179 1295.65C511.749 1295.62 511.511 1295.9 511.466 1296.51C511.421 1297.13 511.614 1297.46 512.044 1297.49C512.255 1297.5 512.425 1297.44 512.553 1297.3C512.682 1297.15 512.758 1296.92 512.781 1296.61C512.826 1296 512.625 1295.68 512.179 1295.65ZM515.067 1301.49C515.111 1300.88 515.317 1300.43 515.686 1300.13C516.062 1299.82 516.525 1299.68 517.072 1299.72C517.62 1299.76 518.05 1299.96 518.361 1300.32C518.682 1300.68 518.82 1301.16 518.776 1301.76C518.731 1302.36 518.525 1302.82 518.156 1303.13C517.795 1303.44 517.341 1303.58 516.793 1303.54C516.237 1303.5 515.8 1303.29 515.48 1302.93C515.16 1302.57 515.023 1302.09 515.067 1301.49ZM516.988 1300.71C516.542 1300.67 516.297 1300.96 516.252 1301.57C516.207 1302.19 516.407 1302.52 516.853 1302.55C517.291 1302.58 517.533 1302.29 517.578 1301.67C517.623 1301.06 517.426 1300.74 516.988 1300.71Z" fill="#23C581"/>
<path d="M524.345 1297.36C525.127 1297.42 525.744 1297.71 526.194 1298.22C526.645 1298.72 526.837 1299.42 526.772 1300.31L526.494 1304.11L525.438 1304.03L525.705 1300.39C525.752 1299.75 525.627 1299.25 525.331 1298.89C525.035 1298.52 524.61 1298.32 524.054 1298.27C523.491 1298.23 523.028 1298.38 522.666 1298.7C522.311 1299.03 522.109 1299.53 522.06 1300.21L521.8 1303.76L520.732 1303.68L521.203 1297.25L522.271 1297.33L522.204 1298.25C522.439 1297.93 522.743 1297.7 523.116 1297.55C523.497 1297.39 523.907 1297.33 524.345 1297.36ZM534.361 1301.2C534.346 1301.4 534.318 1301.62 534.278 1301.84L529.138 1301.47C529.13 1302.1 529.309 1302.62 529.674 1303.01C530.047 1303.39 530.516 1303.6 531.079 1303.64C531.541 1303.67 531.932 1303.6 532.252 1303.41C532.581 1303.21 532.822 1302.94 532.973 1302.59L534.123 1302.67C533.906 1303.28 533.525 1303.76 532.98 1304.11C532.435 1304.45 531.78 1304.6 531.013 1304.54C530.402 1304.5 529.865 1304.32 529.4 1304.01C528.943 1303.7 528.595 1303.29 528.358 1302.77C528.122 1302.24 528.028 1301.64 528.076 1300.98C528.125 1300.31 528.301 1299.74 528.603 1299.26C528.906 1298.78 529.306 1298.42 529.803 1298.19C530.308 1297.95 530.873 1297.85 531.499 1297.9C532.11 1297.94 532.64 1298.12 533.09 1298.42C533.54 1298.72 533.873 1299.11 534.089 1299.6C534.313 1300.08 534.404 1300.61 534.361 1301.2ZM533.274 1300.9C533.304 1300.49 533.239 1300.14 533.081 1299.83C532.922 1299.52 532.692 1299.28 532.39 1299.11C532.096 1298.93 531.762 1298.83 531.386 1298.8C530.846 1298.76 530.372 1298.9 529.963 1299.21C529.563 1299.53 529.313 1299.99 529.213 1300.6L533.274 1300.9ZM537.786 1305.04C537.293 1305 536.857 1304.89 536.478 1304.7C536.099 1304.49 535.808 1304.24 535.602 1303.92C535.398 1303.6 535.298 1303.24 535.303 1302.85L536.407 1302.93C536.414 1303.25 536.544 1303.53 536.795 1303.75C537.054 1303.97 537.402 1304.1 537.841 1304.13C538.248 1304.16 538.575 1304.1 538.823 1303.93C539.071 1303.77 539.205 1303.55 539.225 1303.28C539.245 1303 539.135 1302.78 538.895 1302.63C538.655 1302.47 538.277 1302.31 537.763 1302.13C537.295 1301.97 536.913 1301.82 536.617 1301.67C536.329 1301.52 536.085 1301.31 535.884 1301.04C535.692 1300.77 535.611 1300.42 535.641 1300.01C535.665 1299.68 535.785 1299.39 536.001 1299.13C536.217 1298.87 536.51 1298.67 536.882 1298.54C537.254 1298.4 537.67 1298.35 538.132 1298.39C538.844 1298.44 539.406 1298.66 539.818 1299.05C540.229 1299.44 540.428 1299.95 540.414 1300.58L539.346 1300.5C539.347 1300.17 539.23 1299.89 538.994 1299.66C538.766 1299.44 538.445 1299.32 538.031 1299.29C537.647 1299.26 537.336 1299.32 537.097 1299.47C536.858 1299.61 536.729 1299.82 536.709 1300.09C536.694 1300.3 536.748 1300.48 536.87 1300.63C537.001 1300.77 537.165 1300.89 537.363 1301C537.568 1301.09 537.851 1301.2 538.211 1301.33C538.664 1301.49 539.03 1301.64 539.311 1301.79C539.591 1301.93 539.825 1302.12 540.01 1302.38C540.204 1302.64 540.29 1302.96 540.269 1303.36C540.244 1303.71 540.123 1304.02 539.906 1304.29C539.69 1304.55 539.396 1304.76 539.024 1304.89C538.66 1305.02 538.248 1305.07 537.786 1305.04ZM543.918 1305.49C543.425 1305.45 542.989 1305.34 542.61 1305.14C542.231 1304.94 541.939 1304.69 541.734 1304.37C541.53 1304.05 541.43 1303.69 541.435 1303.3L542.539 1303.38C542.546 1303.7 542.676 1303.98 542.927 1304.2C543.186 1304.42 543.534 1304.55 543.973 1304.58C544.379 1304.61 544.707 1304.55 544.955 1304.38C545.203 1304.22 545.337 1304 545.357 1303.73C545.377 1303.45 545.267 1303.23 545.027 1303.08C544.787 1302.92 544.409 1302.75 543.895 1302.58C543.427 1302.42 543.045 1302.27 542.749 1302.12C542.461 1301.97 542.217 1301.76 542.016 1301.49C541.824 1301.22 541.743 1300.87 541.773 1300.46C541.797 1300.13 541.917 1299.83 542.133 1299.58C542.349 1299.32 542.642 1299.12 543.013 1298.99C543.385 1298.85 543.802 1298.8 544.264 1298.83C544.976 1298.89 545.538 1299.11 545.95 1299.5C546.361 1299.89 546.56 1300.4 546.545 1301.03L545.477 1300.95C545.479 1300.61 545.361 1300.34 545.126 1300.11C544.898 1299.89 544.577 1299.77 544.162 1299.74C543.779 1299.71 543.468 1299.77 543.229 1299.92C542.99 1300.06 542.861 1300.27 542.841 1300.54C542.826 1300.75 542.879 1300.93 543.002 1301.08C543.133 1301.22 543.297 1301.34 543.494 1301.45C543.7 1301.54 543.983 1301.65 544.343 1301.78C544.796 1301.94 545.162 1302.09 545.442 1302.24C545.723 1302.38 545.957 1302.57 546.142 1302.83C546.336 1303.09 546.422 1303.41 546.401 1303.81C546.375 1304.16 546.254 1304.47 546.038 1304.73C545.822 1305 545.528 1305.2 545.156 1305.34C544.792 1305.47 544.38 1305.52 543.918 1305.49ZM547.619 1302.4C547.667 1301.74 547.842 1301.17 548.145 1300.7C548.447 1300.22 548.839 1299.86 549.321 1299.62C549.811 1299.38 550.341 1299.28 550.912 1299.32C551.476 1299.36 551.956 1299.52 552.353 1299.79C552.75 1300.07 553.036 1300.39 553.213 1300.78L553.299 1299.6L554.379 1299.68L553.907 1306.11L552.828 1306.03L552.915 1304.84C552.677 1305.2 552.337 1305.49 551.896 1305.71C551.463 1305.92 550.969 1306 550.414 1305.96C549.843 1305.92 549.337 1305.74 548.896 1305.43C548.455 1305.11 548.12 1304.69 547.891 1304.16C547.662 1303.63 547.572 1303.05 547.619 1302.4ZM553.064 1302.81C553.1 1302.32 553.033 1301.89 552.863 1301.52C552.694 1301.14 552.448 1300.85 552.126 1300.64C551.811 1300.42 551.455 1300.29 551.056 1300.26C550.657 1300.24 550.286 1300.3 549.943 1300.47C549.601 1300.63 549.319 1300.88 549.097 1301.23C548.875 1301.58 548.746 1301.99 548.711 1302.48C548.675 1302.97 548.741 1303.41 548.909 1303.79C549.079 1304.16 549.32 1304.46 549.635 1304.68C549.95 1304.89 550.307 1305.01 550.706 1305.04C551.105 1305.07 551.475 1305 551.818 1304.84C552.169 1304.67 552.455 1304.41 552.677 1304.06C552.899 1303.71 553.029 1303.29 553.064 1302.81ZM561.11 1306.75C560.617 1306.71 560.181 1306.6 559.802 1306.4C559.424 1306.2 559.132 1305.95 558.927 1305.63C558.722 1305.31 558.622 1304.95 558.628 1304.56L559.731 1304.64C559.739 1304.96 559.868 1305.24 560.119 1305.46C560.378 1305.68 560.727 1305.81 561.165 1305.84C561.572 1305.87 561.899 1305.81 562.147 1305.64C562.395 1305.48 562.529 1305.26 562.549 1304.99C562.57 1304.71 562.46 1304.49 562.219 1304.34C561.979 1304.18 561.602 1304.01 561.087 1303.84C560.619 1303.68 560.237 1303.53 559.941 1303.38C559.653 1303.23 559.409 1303.02 559.209 1302.75C559.016 1302.48 558.935 1302.13 558.966 1301.72C558.99 1301.39 559.11 1301.09 559.325 1300.83C559.541 1300.58 559.834 1300.38 560.206 1300.25C560.578 1300.11 560.995 1300.06 561.456 1300.09C562.168 1300.15 562.73 1300.37 563.142 1300.76C563.554 1301.15 563.752 1301.66 563.738 1302.29L562.67 1302.21C562.671 1301.87 562.554 1301.59 562.318 1301.37C562.091 1301.15 561.769 1301.03 561.355 1301C560.971 1300.97 560.66 1301.03 560.421 1301.17C560.182 1301.32 560.053 1301.53 560.034 1301.8C560.018 1302.01 560.072 1302.19 560.194 1302.34C560.326 1302.48 560.49 1302.6 560.687 1302.7C560.892 1302.8 561.175 1302.91 561.536 1303.04C561.988 1303.2 562.354 1303.35 562.635 1303.5C562.916 1303.63 563.149 1303.83 563.335 1304.09C563.528 1304.35 563.614 1304.67 563.594 1305.06C563.568 1305.42 563.447 1305.73 563.231 1305.99C563.014 1306.26 562.72 1306.46 562.348 1306.6C561.985 1306.73 561.572 1306.78 561.11 1306.75ZM571.095 1303.89C571.08 1304.1 571.053 1304.31 571.013 1304.53L565.872 1304.16C565.865 1304.79 566.043 1305.31 566.408 1305.7C566.782 1306.08 567.25 1306.29 567.813 1306.33C568.275 1306.36 568.666 1306.29 568.987 1306.1C569.316 1305.9 569.556 1305.63 569.707 1305.28L570.858 1305.36C570.64 1305.97 570.259 1306.45 569.714 1306.8C569.169 1307.14 568.514 1307.29 567.747 1307.23C567.137 1307.19 566.599 1307.01 566.134 1306.7C565.677 1306.39 565.33 1305.98 565.092 1305.46C564.856 1304.93 564.762 1304.33 564.811 1303.67C564.859 1303 565.035 1302.43 565.338 1301.95C565.64 1301.47 566.04 1301.11 566.537 1300.88C567.042 1300.64 567.608 1300.54 568.234 1300.59C568.844 1300.64 569.374 1300.81 569.824 1301.11C570.274 1301.41 570.607 1301.8 570.823 1302.29C571.047 1302.77 571.138 1303.3 571.095 1303.89ZM570.008 1303.59C570.038 1303.18 569.974 1302.83 569.815 1302.52C569.657 1302.21 569.426 1301.97 569.124 1301.8C568.831 1301.62 568.496 1301.52 568.12 1301.49C567.581 1301.45 567.106 1301.59 566.698 1301.91C566.297 1302.22 566.047 1302.68 565.947 1303.29L570.008 1303.59ZM580.465 1301.47C580.966 1301.51 581.404 1301.65 581.78 1301.89C582.156 1302.12 582.443 1302.45 582.639 1302.88C582.836 1303.32 582.912 1303.83 582.869 1304.42L582.591 1308.21L581.535 1308.14L581.801 1304.5C581.848 1303.86 581.724 1303.36 581.428 1303C581.14 1302.63 580.726 1302.43 580.186 1302.39C579.631 1302.35 579.175 1302.49 578.82 1302.83C578.466 1303.16 578.264 1303.66 578.215 1304.33L577.955 1307.88L576.899 1307.8L577.165 1304.16C577.212 1303.52 577.088 1303.02 576.792 1302.66C576.504 1302.29 576.09 1302.09 575.55 1302.05C574.995 1302.01 574.539 1302.15 574.184 1302.49C573.83 1302.82 573.628 1303.32 573.579 1303.99L573.319 1307.54L572.251 1307.46L572.722 1301.03L573.79 1301.1L573.723 1302.03C573.958 1301.71 574.259 1301.47 574.624 1301.32C574.997 1301.16 575.399 1301.1 575.829 1301.14C576.369 1301.17 576.838 1301.33 577.235 1301.6C577.632 1301.88 577.915 1302.26 578.084 1302.74C578.297 1302.3 578.62 1301.97 579.053 1301.75C579.486 1301.53 579.957 1301.44 580.465 1301.47ZM584.181 1305.07C584.23 1304.42 584.405 1303.85 584.707 1303.38C585.01 1302.9 585.402 1302.54 585.883 1302.3C586.373 1302.06 586.903 1301.96 587.475 1302C588.038 1302.04 588.518 1302.2 588.915 1302.47C589.312 1302.74 589.599 1303.07 589.775 1303.45L589.861 1302.28L590.941 1302.36L590.47 1308.79L589.39 1308.71L589.478 1307.52C589.239 1307.88 588.899 1308.17 588.458 1308.38C588.026 1308.6 587.532 1308.68 586.976 1308.64C586.405 1308.6 585.899 1308.42 585.458 1308.11C585.017 1307.79 584.682 1307.37 584.453 1306.84C584.224 1306.31 584.134 1305.72 584.181 1305.07ZM589.626 1305.49C589.662 1305 589.595 1304.57 589.426 1304.2C589.257 1303.82 589.011 1303.53 588.688 1303.32C588.374 1303.1 588.017 1302.97 587.618 1302.94C587.219 1302.91 586.848 1302.98 586.506 1303.14C586.163 1303.31 585.881 1303.56 585.659 1303.91C585.437 1304.25 585.308 1304.67 585.273 1305.15C585.237 1305.65 585.303 1306.08 585.472 1306.47C585.641 1306.84 585.883 1307.14 586.197 1307.36C586.512 1307.57 586.869 1307.69 587.268 1307.72C587.667 1307.75 588.038 1307.68 588.38 1307.52C588.731 1307.35 589.017 1307.09 589.239 1306.74C589.462 1306.39 589.591 1305.97 589.626 1305.49ZM595.888 1302.6C596.67 1302.66 597.287 1302.95 597.737 1303.46C598.188 1303.96 598.38 1304.66 598.315 1305.56L598.037 1309.35L596.981 1309.27L597.247 1305.63C597.294 1304.99 597.17 1304.49 596.874 1304.13C596.578 1303.76 596.153 1303.56 595.597 1303.52C595.034 1303.47 594.571 1303.62 594.209 1303.94C593.854 1304.27 593.652 1304.77 593.603 1305.45L593.343 1309L592.275 1308.92L592.746 1302.49L593.814 1302.57L593.747 1303.49C593.982 1303.17 594.286 1302.94 594.659 1302.79C595.04 1302.63 595.45 1302.57 595.888 1302.6ZM599.62 1306.21C599.668 1305.55 599.843 1304.98 600.146 1304.51C600.448 1304.03 600.84 1303.67 601.322 1303.43C601.812 1303.19 602.342 1303.09 602.913 1303.13C603.477 1303.17 603.957 1303.33 604.354 1303.6C604.751 1303.88 605.037 1304.2 605.214 1304.59L605.3 1303.41L606.38 1303.49L605.908 1309.92L604.829 1309.84L604.916 1308.65C604.678 1309.01 604.338 1309.3 603.897 1309.52C603.464 1309.73 602.97 1309.81 602.415 1309.77C601.844 1309.73 601.338 1309.55 600.897 1309.24C600.456 1308.92 600.121 1308.5 599.892 1307.97C599.663 1307.44 599.573 1306.85 599.62 1306.21ZM605.065 1306.62C605.101 1306.13 605.034 1305.7 604.864 1305.33C604.695 1304.95 604.449 1304.66 604.127 1304.45C603.812 1304.23 603.456 1304.1 603.057 1304.07C602.658 1304.04 602.287 1304.11 601.944 1304.28C601.602 1304.44 601.32 1304.69 601.098 1305.04C600.876 1305.38 600.747 1305.8 600.712 1306.29C600.676 1306.78 600.742 1307.22 600.91 1307.6C601.08 1307.97 601.321 1308.27 601.636 1308.49C601.951 1308.7 602.308 1308.82 602.707 1308.85C603.106 1308.88 603.476 1308.81 603.819 1308.65C604.17 1308.48 604.456 1308.22 604.678 1307.87C604.9 1307.52 605.03 1307.1 605.065 1306.62Z" fill="#707B81"/>
<rect x="338.213" y="1181.25" width="214.347" height="169.796" rx="16.3912" transform="rotate(5.34287 338.213 1181.25)" fill="white" stroke="#E9EDF7" stroke-width="0.840576"/>
<circle opacity="0.1" cx="371.215" cy="1221.06" r="16.8115" transform="rotate(5.34287 371.215 1221.06)" fill="#2764F5"/>
<path d="M410.871 1219.36L406.506 1228.34L404.738 1228.17L402.1 1218.54L403.734 1218.69L405.769 1226.69L409.264 1219.21L410.871 1219.36ZM412.836 1220.5C412.559 1220.47 412.335 1220.36 412.166 1220.15C411.996 1219.95 411.924 1219.71 411.949 1219.43C411.975 1219.15 412.091 1218.93 412.296 1218.76C412.501 1218.59 412.742 1218.52 413.018 1218.54C413.286 1218.57 413.505 1218.68 413.675 1218.89C413.845 1219.09 413.917 1219.34 413.891 1219.61C413.865 1219.89 413.75 1220.11 413.545 1220.28C413.34 1220.45 413.103 1220.52 412.836 1220.5ZM413.494 1221.55L412.804 1228.93L411.277 1228.78L411.967 1221.4L413.494 1221.55ZM417.475 1229.48C416.895 1229.43 416.382 1229.28 415.937 1229.03C415.502 1228.77 415.167 1228.45 414.933 1228.07C414.699 1227.68 414.594 1227.26 414.618 1226.81L416.198 1226.96C416.196 1227.27 416.318 1227.55 416.566 1227.79C416.824 1228.02 417.158 1228.16 417.569 1228.2C417.997 1228.24 418.335 1228.19 418.582 1228.05C418.839 1227.9 418.979 1227.7 419.004 1227.44C419.03 1227.16 418.915 1226.94 418.66 1226.78C418.413 1226.63 418.012 1226.44 417.456 1226.23C416.916 1226.02 416.479 1225.83 416.144 1225.66C415.81 1225.48 415.527 1225.24 415.295 1224.92C415.073 1224.6 414.984 1224.2 415.029 1223.72C415.066 1223.32 415.215 1222.98 415.478 1222.68C415.741 1222.37 416.095 1222.14 416.541 1221.99C416.996 1221.85 417.505 1221.8 418.067 1221.85C418.906 1221.93 419.56 1222.21 420.029 1222.68C420.508 1223.15 420.73 1223.75 420.698 1224.49L419.171 1224.35C419.175 1224.01 419.066 1223.74 418.843 1223.52C418.621 1223.3 418.304 1223.17 417.893 1223.13C417.492 1223.1 417.177 1223.14 416.948 1223.27C416.72 1223.41 416.594 1223.6 416.57 1223.85C416.552 1224.04 416.608 1224.22 416.738 1224.36C416.869 1224.51 417.033 1224.63 417.23 1224.73C417.429 1224.82 417.724 1224.95 418.115 1225.1C418.637 1225.29 419.061 1225.48 419.386 1225.66C419.721 1225.84 420 1226.08 420.223 1226.39C420.446 1226.7 420.54 1227.09 420.505 1227.57C420.465 1227.98 420.314 1228.35 420.051 1228.66C419.788 1228.97 419.434 1229.19 418.988 1229.34C418.551 1229.49 418.046 1229.54 417.475 1229.48ZM423.519 1221.5C423.243 1221.47 423.019 1221.36 422.849 1221.15C422.679 1220.95 422.607 1220.71 422.633 1220.43C422.659 1220.15 422.775 1219.93 422.98 1219.76C423.185 1219.59 423.426 1219.52 423.702 1219.54C423.97 1219.57 424.189 1219.68 424.359 1219.89C424.529 1220.09 424.601 1220.33 424.575 1220.61C424.549 1220.89 424.434 1221.11 424.229 1221.28C424.024 1221.45 423.787 1221.52 423.519 1221.5ZM424.178 1222.55L423.488 1229.92L421.961 1229.78L422.651 1222.4L424.178 1222.55ZM427.847 1224.15L427.465 1228.23C427.439 1228.51 427.482 1228.71 427.596 1228.85C427.719 1228.98 427.937 1229.06 428.249 1229.09L429.186 1229.17L429.067 1230.45L427.862 1230.33C427.175 1230.27 426.663 1230.06 426.327 1229.7C425.991 1229.35 425.857 1228.81 425.925 1228.09L426.307 1224L425.436 1223.92L425.553 1222.67L426.423 1222.76L426.595 1220.92L428.135 1221.07L427.963 1222.9L429.757 1223.07L429.641 1224.31L427.847 1224.15ZM430.314 1226.81C430.383 1226.07 430.596 1225.42 430.953 1224.88C431.319 1224.34 431.78 1223.94 432.336 1223.67C432.901 1223.4 433.506 1223.3 434.148 1223.36C434.729 1223.41 435.222 1223.57 435.629 1223.85C436.046 1224.11 436.367 1224.42 436.595 1224.79L436.695 1223.72L438.235 1223.86L437.545 1231.24L436.005 1231.09L436.107 1230C435.816 1230.32 435.436 1230.58 434.968 1230.77C434.5 1230.96 433.98 1231.03 433.409 1230.97C432.775 1230.91 432.21 1230.7 431.713 1230.33C431.218 1229.95 430.841 1229.45 430.582 1228.85C430.334 1228.23 430.244 1227.55 430.314 1226.81ZM436.35 1227.4C436.398 1226.89 436.332 1226.44 436.153 1226.04C435.983 1225.65 435.737 1225.34 435.416 1225.11C435.095 1224.88 434.739 1224.75 434.346 1224.71C433.953 1224.68 433.578 1224.74 433.22 1224.9C432.863 1225.06 432.56 1225.32 432.311 1225.67C432.072 1226.02 431.928 1226.45 431.88 1226.95C431.833 1227.46 431.894 1227.92 432.063 1228.32C432.242 1228.73 432.491 1229.05 432.811 1229.28C433.141 1229.51 433.497 1229.64 433.881 1229.68C434.274 1229.72 434.649 1229.65 435.007 1229.49C435.364 1229.32 435.663 1229.06 435.904 1228.71C436.154 1228.34 436.303 1227.91 436.35 1227.4ZM443.974 1224.28C444.554 1224.33 445.061 1224.5 445.493 1224.78C445.935 1225.07 446.263 1225.46 446.478 1225.96C446.692 1226.45 446.768 1227.04 446.706 1227.71L446.299 1232.06L444.786 1231.92L445.171 1227.79C445.233 1227.13 445.115 1226.61 444.817 1226.23C444.52 1225.84 444.086 1225.62 443.515 1225.57C442.944 1225.52 442.472 1225.65 442.099 1225.98C441.736 1226.3 441.524 1226.78 441.462 1227.44L441.076 1231.57L439.55 1231.43L440.24 1224.05L441.766 1224.19L441.687 1225.03C441.966 1224.75 442.305 1224.55 442.705 1224.41C443.113 1224.28 443.536 1224.23 443.974 1224.28ZM450.6 1226.27L450.219 1230.36C450.193 1230.63 450.236 1230.84 450.35 1230.98C450.473 1231.11 450.69 1231.19 451.003 1231.21L451.94 1231.3L451.821 1232.57L450.616 1232.46C449.929 1232.4 449.417 1232.19 449.081 1231.83C448.745 1231.48 448.611 1230.94 448.679 1230.21L449.061 1226.13L448.19 1226.05L448.307 1224.8L449.177 1224.88L449.349 1223.05L450.889 1223.19L450.717 1225.03L452.511 1225.2L452.395 1226.44L450.6 1226.27ZM460.353 1229.47C460.327 1229.74 460.285 1229.99 460.229 1230.21L454.591 1229.69C454.581 1230.28 454.755 1230.77 455.115 1231.17C455.474 1231.56 455.939 1231.78 456.511 1231.84C457.332 1231.91 457.945 1231.62 458.348 1230.97L459.995 1231.12C459.709 1231.78 459.25 1232.3 458.62 1232.68C458 1233.06 457.257 1233.2 456.391 1233.12C455.685 1233.06 455.066 1232.84 454.533 1232.48C454.01 1232.1 453.614 1231.62 453.346 1231.01C453.088 1230.41 452.994 1229.72 453.065 1228.96C453.136 1228.2 453.35 1227.55 453.707 1227.01C454.074 1226.46 454.548 1226.05 455.131 1225.79C455.723 1225.53 456.38 1225.44 457.103 1225.5C457.8 1225.57 458.406 1225.78 458.922 1226.13C459.438 1226.49 459.822 1226.96 460.074 1227.54C460.326 1228.11 460.419 1228.75 460.353 1229.47ZM458.804 1228.84C458.848 1228.27 458.689 1227.8 458.328 1227.43C457.967 1227.05 457.496 1226.84 456.916 1226.78C456.389 1226.73 455.923 1226.86 455.516 1227.17C455.11 1227.46 454.845 1227.89 454.72 1228.46L458.804 1228.84ZM464.16 1233.85C463.58 1233.8 463.067 1233.64 462.622 1233.4C462.187 1233.14 461.852 1232.82 461.617 1232.44C461.384 1232.05 461.279 1231.63 461.303 1231.18L462.883 1231.33C462.88 1231.64 463.003 1231.92 463.251 1232.16C463.508 1232.39 463.843 1232.52 464.253 1232.56C464.682 1232.6 465.02 1232.55 465.267 1232.41C465.524 1232.27 465.664 1232.06 465.688 1231.8C465.714 1231.53 465.6 1231.31 465.344 1231.15C465.098 1230.99 464.697 1230.81 464.14 1230.59C463.601 1230.39 463.164 1230.2 462.829 1230.02C462.494 1229.85 462.211 1229.6 461.98 1229.28C461.757 1228.96 461.669 1228.56 461.714 1228.08C461.751 1227.69 461.9 1227.34 462.162 1227.04C462.425 1226.74 462.78 1226.51 463.226 1226.36C463.681 1226.21 464.189 1226.17 464.752 1226.22C465.591 1226.3 466.245 1226.57 466.714 1227.05C467.192 1227.52 467.415 1228.12 467.382 1228.86L465.856 1228.71C465.86 1228.38 465.751 1228.1 465.528 1227.89C465.305 1227.67 464.989 1227.54 464.578 1227.5C464.176 1227.46 463.861 1227.51 463.633 1227.64C463.404 1227.77 463.278 1227.96 463.255 1228.21C463.237 1228.41 463.293 1228.58 463.423 1228.73C463.553 1228.88 463.717 1229 463.915 1229.1C464.114 1229.19 464.409 1229.31 464.799 1229.47C465.322 1229.66 465.745 1229.85 466.07 1230.03C466.405 1230.21 466.684 1230.45 466.907 1230.76C467.131 1231.07 467.225 1231.46 467.189 1231.93C467.15 1232.35 466.999 1232.71 466.736 1233.02C466.473 1233.33 466.118 1233.56 465.672 1233.71C465.235 1233.86 464.731 1233.9 464.16 1233.85Z" fill="#212227"/>
<path d="M351.059 1270.93C351.299 1269.27 352.005 1268.03 353.178 1267.23C354.369 1266.41 355.86 1266.09 357.651 1266.26C358.873 1266.37 359.898 1266.68 360.728 1267.2C361.559 1267.7 362.158 1268.34 362.525 1269.12C362.909 1269.88 363.058 1270.72 362.972 1271.64C362.874 1272.7 362.514 1273.57 361.893 1274.25C361.29 1274.92 360.6 1275.34 359.823 1275.53L359.814 1275.63C360.756 1276.02 361.459 1276.62 361.923 1277.44C362.403 1278.27 362.587 1279.28 362.475 1280.48C362.381 1281.49 362.063 1282.36 361.52 1283.11C360.995 1283.85 360.259 1284.41 359.313 1284.77C358.385 1285.13 357.293 1285.24 356.038 1285.13C354.146 1284.95 352.651 1284.33 351.552 1283.26C350.453 1282.2 349.957 1280.73 350.063 1278.87L353.478 1279.19C353.435 1280.01 353.649 1280.7 354.121 1281.25C354.611 1281.78 355.317 1282.09 356.237 1282.18C357.091 1282.26 357.766 1282.09 358.261 1281.66C358.776 1281.22 359.068 1280.62 359.138 1279.87C359.232 1278.86 358.981 1278.11 358.386 1277.62C357.791 1277.13 356.824 1276.82 355.484 1276.69L354.756 1276.62L355.026 1273.73L355.754 1273.8C358.131 1274.02 359.394 1273.34 359.543 1271.75C359.61 1271.03 359.445 1270.45 359.047 1270.01C358.666 1269.57 358.074 1269.31 357.271 1269.23C356.484 1269.16 355.853 1269.32 355.377 1269.71C354.919 1270.09 354.627 1270.61 354.499 1271.25L351.059 1270.93ZM378.508 1271.7L370.373 1270.94L369.972 1275.23C370.364 1274.83 370.899 1274.53 371.577 1274.32C372.256 1274.1 372.964 1274.02 373.701 1274.09C375.04 1274.21 376.109 1274.61 376.908 1275.27C377.707 1275.94 378.256 1276.75 378.554 1277.71C378.855 1278.65 378.957 1279.64 378.86 1280.67C378.68 1282.6 377.982 1284.1 376.768 1285.16C375.57 1286.23 373.959 1286.67 371.934 1286.49C370.025 1286.31 368.547 1285.69 367.498 1284.63C366.449 1283.57 365.921 1282.26 365.914 1280.7L369.329 1281.02C369.417 1281.71 369.702 1282.27 370.183 1282.72C370.681 1283.18 371.34 1283.44 372.161 1283.52C373.148 1283.61 373.922 1283.37 374.482 1282.8C375.042 1282.23 375.37 1281.43 375.465 1280.41C375.562 1279.37 375.377 1278.56 374.908 1277.97C374.457 1277.38 373.738 1277.03 372.751 1276.94C372.048 1276.87 371.445 1276.99 370.944 1277.3C370.442 1277.61 370.064 1278.04 369.808 1278.61L366.444 1278.3L367.449 1267.55L378.797 1268.61L378.508 1271.7ZM381.814 1277.94C382.085 1275.04 382.816 1272.82 384.007 1271.28C385.215 1269.74 387.033 1269.08 389.46 1269.31C391.887 1269.53 393.543 1270.52 394.427 1272.25C395.328 1273.99 395.643 1276.31 395.373 1279.2C395.1 1282.12 394.359 1284.35 393.15 1285.91C391.957 1287.47 390.147 1288.14 387.72 1287.91C385.293 1287.68 383.63 1286.69 382.73 1284.94C381.847 1283.18 381.542 1280.85 381.814 1277.94ZM391.908 1278.88C392.023 1277.64 392.037 1276.6 391.948 1275.74C391.877 1274.88 391.624 1274.15 391.189 1273.57C390.77 1272.99 390.092 1272.66 389.155 1272.57C388.217 1272.48 387.481 1272.68 386.945 1273.17C386.427 1273.67 386.044 1274.33 385.796 1275.17C385.567 1275.99 385.395 1277.02 385.279 1278.26C385.16 1279.53 385.135 1280.61 385.205 1281.5C385.275 1282.36 385.528 1283.09 385.964 1283.67C386.401 1284.23 387.088 1284.56 388.025 1284.65C388.963 1284.73 389.698 1284.54 390.232 1284.07C390.768 1283.58 391.151 1282.91 391.381 1282.07C391.613 1281.22 391.789 1280.15 391.908 1278.88ZM401.756 1285.55L398.159 1292.33L395.899 1292.12L398.191 1285.22L401.756 1285.55ZM416.656 1274.89L408.514 1289.91L404.949 1289.57L413.103 1274.96L404.516 1274.16L404.798 1271.15L416.9 1272.28L416.656 1274.89ZM417.481 1287.15L417.739 1284.39L427.048 1273.4L431.141 1273.79L430.07 1285.24L432.28 1285.44L431.993 1288.51L429.784 1288.3L429.45 1291.86L425.935 1291.54L426.269 1287.97L417.481 1287.15ZM427.5 1277.25L421.634 1284.45L426.781 1284.93L427.5 1277.25ZM447.628 1278.17L439.493 1277.4L439.092 1281.7C439.484 1281.3 440.019 1280.99 440.697 1280.78C441.376 1280.56 442.084 1280.48 442.821 1280.55C444.16 1280.68 445.229 1281.07 446.028 1281.74C446.826 1282.4 447.375 1283.22 447.674 1284.17C447.975 1285.11 448.076 1286.1 447.979 1287.14C447.799 1289.06 447.102 1290.56 445.888 1291.63C444.69 1292.7 443.079 1293.14 441.053 1292.95C439.145 1292.77 437.667 1292.15 436.618 1291.09C435.569 1290.03 435.041 1288.72 435.034 1287.17L438.449 1287.49C438.537 1288.17 438.822 1288.74 439.303 1289.19C439.801 1289.64 440.46 1289.91 441.28 1289.98C442.268 1290.07 443.042 1289.83 443.602 1289.26C444.162 1288.69 444.49 1287.89 444.585 1286.87C444.682 1285.83 444.496 1285.02 444.028 1284.44C443.577 1283.84 442.858 1283.49 441.87 1283.4C441.167 1283.34 440.565 1283.46 440.064 1283.76C439.562 1284.07 439.183 1284.51 438.928 1285.08L435.563 1284.76L436.568 1274.02L447.917 1275.08L447.628 1278.17Z" fill="#212227"/>
<path d="M365.424 1327.48L365.295 1328.86L360.327 1328.4L360.456 1327.02L365.424 1327.48ZM367.309 1330.71C368.117 1330.15 368.764 1329.69 369.248 1329.31C369.732 1328.93 370.144 1328.53 370.483 1328.11C370.823 1327.68 371.013 1327.25 371.054 1326.81C371.091 1326.41 371.026 1326.09 370.86 1325.85C370.694 1325.6 370.415 1325.46 370.025 1325.43C369.634 1325.39 369.321 1325.5 369.085 1325.74C368.85 1325.98 368.708 1326.33 368.658 1326.78L367.064 1326.63C367.183 1325.69 367.527 1325.01 368.095 1324.57C368.672 1324.14 369.366 1323.96 370.179 1324.04C371.069 1324.12 371.73 1324.42 372.162 1324.94C372.595 1325.46 372.775 1326.1 372.703 1326.87C372.646 1327.48 372.427 1328.05 372.047 1328.57C371.667 1329.1 371.247 1329.55 370.787 1329.92C370.327 1330.29 369.73 1330.73 368.996 1331.24L372.453 1331.56L372.326 1332.92L366.538 1332.38L366.652 1331.16L367.309 1330.71ZM373.764 1326.68C373.819 1326.08 374.035 1325.63 374.41 1325.33C374.793 1325.03 375.257 1324.9 375.804 1324.95C376.351 1325 376.781 1325.21 377.093 1325.58C377.413 1325.95 377.545 1326.43 377.49 1327.02C377.434 1327.63 377.214 1328.08 376.831 1328.38C376.456 1328.68 375.995 1328.81 375.448 1328.76C374.901 1328.71 374.468 1328.5 374.148 1328.13C373.836 1327.76 373.708 1327.28 373.764 1326.68ZM381.45 1325.62L376.079 1333.39L374.485 1333.24L379.845 1325.47L381.45 1325.62ZM375.701 1325.94C375.271 1325.9 375.028 1326.18 374.971 1326.79C374.913 1327.41 375.099 1327.73 375.528 1327.77C375.739 1327.79 375.91 1327.74 376.041 1327.6C376.173 1327.45 376.254 1327.22 376.283 1326.91C376.34 1326.3 376.146 1325.98 375.701 1325.94ZM378.47 1331.83C378.527 1331.23 378.742 1330.78 379.116 1330.49C379.499 1330.18 379.964 1330.06 380.511 1330.11C381.058 1330.16 381.483 1330.37 381.788 1330.74C382.101 1331.1 382.229 1331.58 382.173 1332.18C382.117 1332.78 381.901 1333.23 381.526 1333.54C381.158 1333.84 380.701 1333.97 380.155 1333.92C379.6 1333.86 379.167 1333.65 378.854 1333.29C378.542 1332.92 378.414 1332.43 378.47 1331.83ZM380.407 1331.09C379.962 1331.05 379.711 1331.33 379.654 1331.94C379.596 1332.56 379.79 1332.89 380.235 1332.93C380.672 1332.97 380.92 1332.68 380.978 1332.07C381.035 1331.46 380.844 1331.13 380.407 1331.09Z" fill="#E74545"/>
<path d="M389.755 1328.08C390.536 1328.15 391.147 1328.45 391.586 1328.97C392.027 1329.48 392.205 1330.19 392.122 1331.08L391.768 1334.86L390.714 1334.76L391.053 1331.13C391.113 1330.49 390.999 1329.99 390.71 1329.62C390.422 1329.25 390 1329.03 389.446 1328.98C388.883 1328.93 388.418 1329.06 388.049 1329.38C387.688 1329.7 387.476 1330.2 387.413 1330.87L387.081 1334.42L386.015 1334.32L386.616 1327.9L387.682 1328L387.596 1328.92C387.838 1328.61 388.147 1328.38 388.523 1328.23C388.907 1328.09 389.318 1328.04 389.755 1328.08ZM399.692 1332.11C399.673 1332.32 399.641 1332.53 399.596 1332.76L394.464 1332.28C394.444 1332.91 394.613 1333.43 394.969 1333.82C395.335 1334.21 395.799 1334.43 396.361 1334.49C396.822 1334.53 397.215 1334.46 397.539 1334.28C397.872 1334.09 398.118 1333.82 398.276 1333.47L399.425 1333.58C399.195 1334.18 398.804 1334.65 398.252 1334.99C397.701 1335.33 397.042 1335.46 396.277 1335.39C395.668 1335.33 395.134 1335.14 394.675 1334.83C394.224 1334.51 393.885 1334.09 393.659 1333.56C393.433 1333.03 393.351 1332.43 393.413 1331.76C393.475 1331.1 393.662 1330.53 393.975 1330.06C394.287 1329.58 394.694 1329.23 395.195 1329.01C395.705 1328.78 396.272 1328.7 396.897 1328.76C397.506 1328.81 398.033 1329 398.477 1329.31C398.921 1329.62 399.246 1330.02 399.452 1330.51C399.666 1330.99 399.746 1331.53 399.692 1332.11ZM398.611 1331.79C398.649 1331.38 398.592 1331.03 398.439 1330.72C398.287 1330.41 398.062 1330.16 397.763 1329.98C397.473 1329.8 397.141 1329.69 396.766 1329.65C396.227 1329.6 395.75 1329.73 395.335 1330.04C394.928 1330.35 394.669 1330.81 394.557 1331.41L398.611 1331.79ZM403.039 1336.02C402.547 1335.97 402.113 1335.85 401.738 1335.65C401.364 1335.44 401.077 1335.18 400.878 1334.86C400.68 1334.54 400.588 1334.18 400.601 1333.78L401.702 1333.89C401.703 1334.21 401.827 1334.49 402.074 1334.71C402.328 1334.94 402.674 1335.08 403.112 1335.12C403.518 1335.16 403.847 1335.1 404.098 1334.94C404.349 1334.78 404.487 1334.56 404.513 1334.29C404.539 1334.01 404.433 1333.79 404.196 1333.64C403.959 1333.47 403.585 1333.3 403.074 1333.12C402.609 1332.95 402.231 1332.79 401.938 1332.63C401.653 1332.47 401.413 1332.26 401.218 1331.99C401.031 1331.71 400.957 1331.36 400.996 1330.95C401.027 1330.62 401.152 1330.33 401.373 1330.07C401.594 1329.82 401.891 1329.63 402.265 1329.51C402.64 1329.38 403.058 1329.33 403.519 1329.38C404.229 1329.44 404.787 1329.68 405.191 1330.08C405.594 1330.48 405.783 1330.99 405.756 1331.62L404.689 1331.52C404.697 1331.18 404.586 1330.9 404.355 1330.67C404.132 1330.45 403.813 1330.31 403.399 1330.27C403.016 1330.24 402.704 1330.29 402.462 1330.44C402.22 1330.58 402.087 1330.78 402.062 1331.05C402.042 1331.26 402.092 1331.44 402.212 1331.59C402.34 1331.74 402.502 1331.87 402.697 1331.97C402.9 1332.07 403.181 1332.19 403.539 1332.32C403.988 1332.49 404.351 1332.65 404.628 1332.8C404.907 1332.95 405.136 1333.15 405.316 1333.41C405.504 1333.67 405.584 1334 405.556 1334.39C405.523 1334.74 405.395 1335.05 405.174 1335.31C404.952 1335.57 404.654 1335.77 404.279 1335.9C403.913 1336.02 403.5 1336.06 403.039 1336.02ZM409.161 1336.59C408.669 1336.55 408.235 1336.42 407.86 1336.22C407.485 1336.02 407.199 1335.75 407 1335.43C406.802 1335.11 406.709 1334.75 406.722 1334.36L407.824 1334.46C407.825 1334.78 407.949 1335.06 408.196 1335.29C408.45 1335.51 408.796 1335.65 409.233 1335.69C409.639 1335.73 409.968 1335.67 410.219 1335.51C410.47 1335.35 410.609 1335.14 410.634 1334.86C410.661 1334.58 410.555 1334.36 410.317 1334.21C410.081 1334.04 409.707 1333.87 409.196 1333.69C408.731 1333.52 408.352 1333.36 408.059 1333.2C407.775 1333.04 407.535 1332.83 407.34 1332.56C407.153 1332.28 407.079 1331.93 407.117 1331.52C407.148 1331.19 407.274 1330.9 407.495 1330.65C407.716 1330.39 408.013 1330.2 408.387 1330.08C408.762 1329.95 409.179 1329.91 409.64 1329.95C410.351 1330.01 410.908 1330.25 411.312 1330.65C411.716 1331.05 411.904 1331.56 411.877 1332.19L410.811 1332.09C410.819 1331.75 410.707 1331.47 410.476 1331.24C410.253 1331.02 409.935 1330.89 409.521 1330.85C409.138 1330.81 408.826 1330.87 408.584 1331.01C408.342 1331.15 408.209 1331.36 408.184 1331.62C408.164 1331.83 408.214 1332.01 408.334 1332.17C408.462 1332.31 408.623 1332.44 408.818 1332.54C409.022 1332.64 409.303 1332.76 409.66 1332.89C410.11 1333.06 410.473 1333.22 410.75 1333.37C411.028 1333.52 411.257 1333.72 411.438 1333.98C411.626 1334.24 411.706 1334.57 411.677 1334.96C411.644 1335.31 411.517 1335.62 411.295 1335.88C411.074 1336.15 410.776 1336.34 410.401 1336.47C410.035 1336.6 409.622 1336.64 409.161 1336.59ZM412.923 1333.58C412.984 1332.92 413.171 1332.36 413.483 1331.89C413.795 1331.42 414.194 1331.06 414.681 1330.83C415.175 1330.6 415.707 1330.52 416.277 1330.57C416.84 1330.62 417.317 1330.79 417.708 1331.07C418.099 1331.35 418.379 1331.68 418.548 1332.07L418.658 1330.9L419.736 1331L419.135 1337.42L418.057 1337.32L418.169 1336.12C417.923 1336.48 417.578 1336.76 417.132 1336.97C416.696 1337.18 416.2 1337.25 415.646 1337.2C415.075 1337.15 414.573 1336.96 414.138 1336.63C413.704 1336.31 413.377 1335.88 413.159 1335.35C412.941 1334.82 412.862 1334.23 412.923 1333.58ZM418.359 1334.1C418.404 1333.61 418.346 1333.18 418.184 1332.8C418.022 1332.43 417.782 1332.13 417.464 1331.91C417.154 1331.68 416.8 1331.55 416.402 1331.51C416.003 1331.48 415.631 1331.54 415.286 1331.69C414.94 1331.85 414.653 1332.1 414.424 1332.44C414.195 1332.78 414.058 1333.19 414.013 1333.68C413.967 1334.17 414.024 1334.61 414.185 1334.99C414.347 1335.37 414.583 1335.67 414.892 1335.9C415.203 1336.12 415.557 1336.25 415.956 1336.28C416.354 1336.32 416.726 1336.26 417.072 1336.1C417.426 1335.94 417.717 1335.69 417.946 1335.35C418.176 1335 418.313 1334.58 418.359 1334.1ZM426.324 1338.2C425.832 1338.15 425.398 1338.03 425.023 1337.83C424.649 1337.62 424.362 1337.36 424.163 1337.04C423.965 1336.71 423.873 1336.35 423.886 1335.96L424.987 1336.06C424.989 1336.39 425.112 1336.66 425.359 1336.89C425.613 1337.12 425.959 1337.25 426.397 1337.3C426.803 1337.33 427.132 1337.27 427.383 1337.12C427.634 1336.96 427.772 1336.74 427.798 1336.47C427.824 1336.19 427.719 1335.97 427.481 1335.81C427.244 1335.65 426.87 1335.48 426.359 1335.29C425.895 1335.12 425.516 1334.96 425.223 1334.81C424.938 1334.65 424.698 1334.43 424.503 1334.16C424.316 1333.89 424.242 1333.54 424.281 1333.13C424.312 1332.8 424.437 1332.51 424.658 1332.25C424.879 1332 425.177 1331.81 425.55 1331.68C425.925 1331.55 426.343 1331.51 426.804 1331.55C427.515 1331.62 428.072 1331.85 428.476 1332.25C428.88 1332.65 429.068 1333.17 429.041 1333.8L427.974 1333.7C427.982 1333.36 427.871 1333.08 427.64 1332.85C427.417 1332.62 427.098 1332.49 426.684 1332.45C426.301 1332.42 425.989 1332.47 425.747 1332.61C425.505 1332.76 425.372 1332.96 425.347 1333.23C425.327 1333.44 425.377 1333.62 425.497 1333.77C425.625 1333.92 425.787 1334.04 425.982 1334.15C426.186 1334.25 426.466 1334.36 426.824 1334.5C427.273 1334.67 427.636 1334.83 427.914 1334.98C428.192 1335.12 428.421 1335.33 428.601 1335.59C428.79 1335.85 428.869 1336.18 428.841 1336.57C428.808 1336.92 428.681 1337.23 428.459 1337.49C428.237 1337.75 427.939 1337.95 427.565 1338.08C427.198 1338.2 426.785 1338.24 426.324 1338.2ZM436.364 1335.54C436.345 1335.75 436.313 1335.96 436.269 1336.19L431.137 1335.71C431.117 1336.34 431.285 1336.86 431.642 1337.25C432.008 1337.64 432.472 1337.86 433.034 1337.92C433.495 1337.96 433.887 1337.89 434.212 1337.71C434.545 1337.52 434.79 1337.25 434.949 1336.9L436.097 1337.01C435.868 1337.61 435.477 1338.08 434.925 1338.42C434.374 1338.76 433.715 1338.89 432.95 1338.82C432.34 1338.76 431.806 1338.57 431.348 1338.25C430.897 1337.94 430.558 1337.52 430.331 1336.99C430.105 1336.46 430.023 1335.86 430.086 1335.19C430.148 1334.53 430.335 1333.96 430.647 1333.49C430.959 1333.01 431.366 1332.66 431.868 1332.44C432.378 1332.21 432.945 1332.13 433.57 1332.19C434.179 1332.24 434.706 1332.43 435.149 1332.74C435.593 1333.05 435.918 1333.45 436.124 1333.94C436.339 1334.42 436.419 1334.96 436.364 1335.54ZM435.284 1335.22C435.322 1334.81 435.264 1334.46 435.112 1334.15C434.96 1333.84 434.735 1333.59 434.436 1333.41C434.146 1333.23 433.814 1333.12 433.439 1333.08C432.9 1333.03 432.423 1333.16 432.008 1333.47C431.601 1333.78 431.341 1334.24 431.23 1334.84L435.284 1335.22ZM445.781 1333.32C446.281 1333.36 446.717 1333.51 447.087 1333.76C447.459 1334 447.739 1334.33 447.927 1334.77C448.114 1335.21 448.18 1335.72 448.125 1336.31L447.771 1340.1L446.717 1340L447.056 1336.37C447.116 1335.73 447.002 1335.22 446.713 1334.86C446.432 1334.48 446.023 1334.27 445.484 1334.22C444.929 1334.17 444.471 1334.31 444.109 1334.64C443.748 1334.96 443.537 1335.45 443.474 1336.13L443.143 1339.67L442.088 1339.57L442.428 1335.93C442.488 1335.29 442.373 1334.79 442.085 1334.42C441.804 1334.05 441.395 1333.84 440.856 1333.79C440.301 1333.74 439.843 1333.88 439.481 1334.2C439.12 1334.53 438.908 1335.02 438.846 1335.69L438.515 1339.23L437.448 1339.13L438.049 1332.71L439.115 1332.81L439.029 1333.74C439.271 1333.42 439.576 1333.19 439.945 1333.04C440.321 1332.9 440.724 1332.84 441.153 1332.88C441.692 1332.93 442.157 1333.1 442.549 1333.38C442.94 1333.66 443.215 1334.05 443.375 1334.53C443.597 1334.1 443.926 1333.77 444.364 1333.56C444.801 1333.35 445.274 1333.27 445.781 1333.32ZM449.424 1336.99C449.485 1336.33 449.672 1335.77 449.984 1335.31C450.296 1334.83 450.695 1334.48 451.182 1334.25C451.676 1334.02 452.208 1333.93 452.778 1333.98C453.341 1334.04 453.818 1334.2 454.209 1334.48C454.6 1334.76 454.88 1335.1 455.049 1335.48L455.159 1334.31L456.237 1334.41L455.636 1340.83L454.558 1340.73L454.67 1339.54C454.424 1339.89 454.079 1340.18 453.633 1340.39C453.197 1340.59 452.701 1340.67 452.147 1340.61C451.576 1340.56 451.074 1340.37 450.639 1340.05C450.205 1339.72 449.878 1339.29 449.66 1338.76C449.442 1338.23 449.363 1337.64 449.424 1336.99ZM454.86 1337.51C454.905 1337.03 454.847 1336.6 454.685 1336.22C454.523 1335.84 454.283 1335.54 453.965 1335.32C453.655 1335.1 453.301 1334.97 452.903 1334.93C452.504 1334.89 452.132 1334.95 451.787 1335.11C451.441 1335.26 451.154 1335.51 450.925 1335.85C450.696 1336.2 450.559 1336.61 450.514 1337.09C450.468 1337.58 450.525 1338.02 450.686 1338.41C450.848 1338.79 451.084 1339.09 451.393 1339.31C451.704 1339.53 452.058 1339.66 452.457 1339.7C452.855 1339.73 453.227 1339.67 453.573 1339.52C453.927 1339.35 454.218 1339.1 454.447 1338.76C454.677 1338.41 454.814 1337.99 454.86 1337.51ZM461.178 1334.76C461.959 1334.83 462.57 1335.13 463.009 1335.65C463.45 1336.16 463.628 1336.87 463.545 1337.76L463.191 1341.54L462.137 1341.44L462.476 1337.81C462.536 1337.17 462.422 1336.67 462.133 1336.3C461.845 1335.93 461.423 1335.71 460.869 1335.66C460.306 1335.61 459.841 1335.74 459.472 1336.06C459.111 1336.38 458.899 1336.88 458.836 1337.55L458.504 1341.1L457.438 1341L458.039 1334.58L459.105 1334.68L459.019 1335.59C459.261 1335.29 459.57 1335.06 459.946 1334.91C460.33 1334.77 460.741 1334.72 461.178 1334.76ZM464.837 1338.43C464.898 1337.78 465.085 1337.21 465.396 1336.75C465.709 1336.27 466.108 1335.92 466.595 1335.69C467.089 1335.46 467.621 1335.37 468.191 1335.42C468.754 1335.48 469.231 1335.64 469.622 1335.92C470.013 1336.21 470.293 1336.54 470.462 1336.92L470.572 1335.75L471.65 1335.85L471.049 1342.27L469.971 1342.17L470.083 1340.98C469.837 1341.33 469.491 1341.62 469.046 1341.83C468.61 1342.03 468.114 1342.11 467.559 1342.05C466.989 1342 466.487 1341.81 466.052 1341.49C465.618 1341.16 465.291 1340.74 465.073 1340.2C464.855 1339.67 464.776 1339.08 464.837 1338.43ZM470.272 1338.95C470.318 1338.47 470.26 1338.04 470.098 1337.66C469.936 1337.28 469.696 1336.98 469.378 1336.76C469.068 1336.54 468.714 1336.41 468.316 1336.37C467.917 1336.33 467.545 1336.39 467.2 1336.55C466.854 1336.71 466.567 1336.95 466.338 1337.3C466.109 1337.64 465.972 1338.05 465.927 1338.53C465.881 1339.03 465.938 1339.46 466.099 1339.85C466.261 1340.23 466.496 1340.53 466.806 1340.76C467.117 1340.97 467.471 1341.1 467.87 1341.14C468.268 1341.18 468.64 1341.12 468.986 1340.96C469.34 1340.8 469.631 1340.54 469.86 1340.2C470.09 1339.85 470.227 1339.44 470.272 1338.95Z" fill="#707B81"/>
</svg>