<svg width="300" height="72" viewBox="0 0 300 72" fill="none" xmlns="http://www.w3.org/2000/svg">
<path d="M62.047 20.42C68.167 20.42 73.087 22.31 76.807 26.09C80.587 29.81 82.477 35.03 82.477 41.75V71H69.877V43.46C69.877 39.56 68.887 36.59 66.907 34.55C64.927 32.45 62.227 31.4 58.807 31.4C55.387 31.4 52.657 32.45 50.617 34.55C48.637 36.59 47.647 39.56 47.647 43.46V71H35.047V43.46C35.047 39.56 34.057 36.59 32.077 34.55C30.097 32.45 27.397 31.4 23.977 31.4C20.497 31.4 17.737 32.45 15.697 34.55C13.717 36.59 12.727 39.56 12.727 43.46V71H0.126993V21.14H12.727V27.17C14.347 25.07 16.417 23.42 18.937 22.22C21.517 21.02 24.337 20.42 27.397 20.42C31.297 20.42 34.777 21.26 37.837 22.94C40.897 24.56 43.267 26.9 44.947 29.96C46.567 27.08 48.907 24.77 51.967 23.03C55.087 21.29 58.447 20.42 62.047 20.42ZM91.1936 45.89C91.1936 40.85 92.1836 36.38 94.1636 32.48C96.2036 28.58 98.9336 25.58 102.354 23.48C105.834 21.38 109.704 20.33 113.964 20.33C117.684 20.33 120.924 21.08 123.684 22.58C126.504 24.08 128.754 25.97 130.434 28.25V21.14H143.124V71H130.434V63.71C128.814 66.05 126.564 68 123.684 69.56C120.864 71.06 117.594 71.81 113.874 71.81C109.674 71.81 105.834 70.73 102.354 68.57C98.9336 66.41 96.2036 63.38 94.1636 59.48C92.1836 55.52 91.1936 50.99 91.1936 45.89ZM130.434 46.07C130.434 43.01 129.834 40.4 128.634 38.24C127.434 36.02 125.814 34.34 123.774 33.2C121.734 32 119.544 31.4 117.204 31.4C114.864 31.4 112.704 31.97 110.724 33.11C108.744 34.25 107.124 35.93 105.864 38.15C104.664 40.31 104.064 42.89 104.064 45.89C104.064 48.89 104.664 51.53 105.864 53.81C107.124 56.03 108.744 57.74 110.724 58.94C112.764 60.14 114.924 60.74 117.204 60.74C119.544 60.74 121.734 60.17 123.774 59.03C125.814 57.83 127.434 56.15 128.634 53.99C129.834 51.77 130.434 49.13 130.434 46.07ZM182.97 71L172.71 55.52L163.62 71H150.12L166.41 45.98L149.94 21.14H164.16L174.33 36.53L183.51 21.14H197.01L180.63 45.98L197.19 71H182.97Z" fill="#212227"/>
<path d="M209.613 71.63C207.333 71.63 205.443 70.94 203.943 69.56C202.503 68.12 201.783 66.35 201.783 64.25C201.783 62.15 202.503 60.41 203.943 59.03C205.443 57.59 207.333 56.87 209.613 56.87C211.833 56.87 213.663 57.59 215.103 59.03C216.543 60.41 217.263 62.15 217.263 64.25C217.263 66.35 216.543 68.12 215.103 69.56C213.663 70.94 211.833 71.63 209.613 71.63Z" fill="#6DACE7"/>
<path d="M263.052 38.78C266.592 39.44 269.502 41.21 271.782 44.09C274.062 46.97 275.202 50.27 275.202 53.99C275.202 57.35 274.362 60.32 272.682 62.9C271.062 65.42 268.692 67.4 265.572 68.84C262.452 70.28 258.762 71 254.502 71H227.412V8.18H253.332C257.592 8.18 261.252 8.87 264.312 10.25C267.432 11.63 269.772 13.55 271.332 16.01C272.952 18.47 273.762 21.26 273.762 24.38C273.762 28.04 272.772 31.1 270.792 33.56C268.872 36.02 266.292 37.76 263.052 38.78ZM240.012 34.1H251.532C254.532 34.1 256.842 33.44 258.462 32.12C260.082 30.74 260.892 28.79 260.892 26.27C260.892 23.75 260.082 21.8 258.462 20.42C256.842 19.04 254.532 18.35 251.532 18.35H240.012V34.1ZM252.702 60.74C255.762 60.74 258.132 60.02 259.812 58.58C261.552 57.14 262.422 55.1 262.422 52.46C262.422 49.76 261.522 47.66 259.722 46.16C257.922 44.6 255.492 43.82 252.432 43.82H240.012V60.74H252.702ZM291.634 15.2C289.414 15.2 287.554 14.51 286.054 13.13C284.614 11.69 283.894 9.92 283.894 7.82C283.894 5.72 284.614 3.98 286.054 2.6C287.554 1.16 289.414 0.439996 291.634 0.439996C293.854 0.439996 295.684 1.16 297.124 2.6C298.624 3.98 299.374 5.72 299.374 7.82C299.374 9.92 298.624 11.69 297.124 13.13C295.684 14.51 293.854 15.2 291.634 15.2ZM297.844 21.14V71H285.244V21.14H297.844Z" fill="url(#paint0_linear_232_5)"/>
<defs>
<linearGradient id="paint0_linear_232_5" x1="223.419" y1="23.6667" x2="270.166" y2="83.1774" gradientUnits="userSpaceOnUse">
<stop stop-color="#94D2FD"/>
<stop offset="1" stop-color="#0048FF"/>
</linearGradient>
</defs>
</svg>
